
<svg version="1.1" xmlns="http://www.w3.org/2000/svg" width="512" height="512">
<path d="M0 0 C1.1492395 -0.0071553 2.298479 -0.01431061 3.48254395 -0.02168274 C5.36054687 -0.02571609 5.36054687 -0.02571609 7.27648926 -0.02983093 C8.61572443 -0.03610146 9.95495787 -0.04274878 11.29418945 -0.04974365 C15.68476158 -0.07072513 20.07533381 -0.08114393 24.46594238 -0.09111023 C25.98279335 -0.09516069 27.49964414 -0.0992777 29.01649475 -0.10346031 C36.14828388 -0.12250295 43.28006274 -0.13673311 50.41187239 -0.14507228 C58.61634789 -0.15482645 66.82055229 -0.18110199 75.02493238 -0.22157317 C81.38357238 -0.25185146 87.7421352 -0.26655239 94.10084581 -0.26985329 C97.89018337 -0.27219141 101.67923105 -0.28098793 105.4684906 -0.30631447 C109.04075342 -0.32980501 112.61253983 -0.33374565 116.18486023 -0.32355309 C118.09915284 -0.3228312 120.0134224 -0.34177606 121.9276123 -0.36161804 C135.09751939 -0.28357608 145.60433734 2.85028884 155.14562988 11.95967102 C162.33036325 19.47787302 165.35018656 28.6021762 165.3943634 38.89997864 C165.40509636 40.62383789 165.40509636 40.62383789 165.41604614 42.38252258 C165.41873505 43.63452454 165.42142395 44.88652649 165.42419434 46.1764679 C165.43046486 47.51570306 165.43711218 48.85493651 165.44410706 50.19416809 C165.46508854 54.58474022 165.47550733 58.97531244 165.48547363 63.36592102 C165.4895241 64.88277199 165.4936411 66.39962278 165.49782372 67.91647339 C165.51686635 75.04826251 165.53109651 82.18004138 165.53943568 89.31185102 C165.54918986 97.51632653 165.57546539 105.72053093 165.61593658 113.92491102 C165.64621487 120.28355101 165.66091579 126.64211384 165.6642167 133.00082445 C165.66655481 136.79016201 165.67535133 140.57920969 165.70067787 144.36846924 C165.72416841 147.94073205 165.72810905 151.51251847 165.71791649 155.08483887 C165.71719461 156.99913147 165.73613946 158.91340104 165.75598145 160.82759094 C165.67793948 173.99749803 162.54407456 184.50431598 153.43469238 194.04560852 C145.91649038 201.23034188 136.79218721 204.25016519 126.49438477 204.29434204 C124.77052551 204.305075 124.77052551 204.305075 123.01184082 204.31602478 C121.75983887 204.31871368 120.50783691 204.32140259 119.21789551 204.32417297 C117.87866034 204.3304435 116.53942689 204.33709082 115.20019531 204.34408569 C110.80962318 204.36506717 106.41905096 204.37548597 102.02844238 204.38545227 C100.51159142 204.38950273 98.99474062 204.39361974 97.47789001 204.39780235 C90.34610089 204.41684499 83.21432202 204.43107515 76.08251238 204.43941432 C67.87803688 204.44916849 59.67383247 204.47544403 51.46945238 204.51591522 C45.11081239 204.5461935 38.75224957 204.56089443 32.39353895 204.56419533 C28.60420139 204.56653345 24.81515371 204.57532997 21.02589417 204.60065651 C17.45363135 204.62414705 13.88184493 204.62808769 10.30952454 204.61789513 C8.39523193 204.61717324 6.48096237 204.6361181 4.56677246 204.65596008 C-8.60313463 204.57791812 -19.10995258 201.4440532 -28.65124512 192.33467102 C-35.83597848 184.81646902 -38.85580179 175.69216584 -38.89997864 165.3943634 C-38.90713394 164.2451239 -38.91428925 163.0958844 -38.92166138 161.91181946 C-38.92435028 160.6598175 -38.92703918 159.40781555 -38.92980957 158.11787415 C-38.9360801 156.77863898 -38.94272742 155.43940553 -38.94972229 154.10017395 C-38.97070377 149.70960182 -38.98112257 145.3190296 -38.99108887 140.92842102 C-38.99513933 139.41157005 -38.99925634 137.89471926 -39.00343895 136.37786865 C-39.02248158 129.24607953 -39.03671175 122.11430066 -39.04505092 114.98249102 C-39.05480509 106.77801551 -39.08108063 98.57381111 -39.12155181 90.36943102 C-39.1518301 84.01079103 -39.16653102 77.6522282 -39.16983193 71.29351759 C-39.17217005 67.50418003 -39.18096657 63.71513235 -39.20629311 59.9258728 C-39.22978365 56.35360999 -39.23372429 52.78182357 -39.22353172 49.20950317 C-39.22280984 47.29521057 -39.2417547 45.38094101 -39.26159668 43.4667511 C-39.18355471 30.29684401 -36.0496898 19.79002606 -26.94030762 10.24873352 C-19.42210562 3.06400016 -10.29780244 0.04417685 0 0 Z M-5.75280762 37.14717102 C-6.34976882 39.70191001 -6.34976882 39.70191001 -6.26074219 42.53657532 C-6.27202148 43.63013336 -6.28330078 44.72369141 -6.29492188 45.85038757 C-6.28682495 47.0453183 -6.27872803 48.24024902 -6.27038574 49.47138977 C-6.27739502 50.73351288 -6.2844043 51.99563599 -6.29162598 53.29600525 C-6.30985485 56.75476073 -6.30279405 60.21303874 -6.29010963 63.67180252 C-6.27997951 67.29210442 -6.28937533 70.91236556 -6.2956543 74.53266907 C-6.3029307 80.61225217 -6.29334333 86.69164087 -6.27429199 92.77119446 C-6.25252305 99.79911343 -6.25957445 106.82656825 -6.28159761 113.85447598 C-6.29975196 119.88942913 -6.30230984 125.92424258 -6.29184294 131.95921421 C-6.28560811 135.56323416 -6.28477183 139.16703596 -6.29798889 142.77104187 C-6.31169361 146.78862479 -6.29269742 150.80540806 -6.27038574 154.82295227 C-6.27848267 156.017883 -6.28657959 157.21281372 -6.29492188 158.44395447 C-6.28364258 159.53751251 -6.27236328 160.63107056 -6.26074219 161.75776672 C-6.25923409 162.70754898 -6.25772598 163.65733124 -6.25617218 164.63589478 C-5.58670009 167.9758783 -4.47951556 169.14225331 -1.75280762 171.14717102 C0.80193137 171.74413222 0.80193137 171.74413222 3.63659668 171.65510559 C4.73015472 171.66638489 5.82371277 171.67766418 6.95040894 171.68928528 C8.14533966 171.68118835 9.34027039 171.67309143 10.57141113 171.66474915 C11.83353424 171.67175842 13.09565735 171.6787677 14.39602661 171.68598938 C17.85478209 171.70421825 21.3130601 171.69715745 24.77182388 171.68447304 C28.39212578 171.67434291 32.01238692 171.68373874 35.63269043 171.6900177 C41.71227353 171.69729411 47.79166224 171.68770673 53.87121582 171.6686554 C60.8991348 171.64688646 67.92658961 171.65393785 74.95449734 171.67596102 C80.98945049 171.69411536 87.02426394 171.69667324 93.05923557 171.68620634 C96.66325552 171.67997151 100.26705732 171.67913523 103.87106323 171.69235229 C107.88864615 171.70605701 111.90542942 171.68706082 115.92297363 171.66474915 C117.11790436 171.67284607 118.31283508 171.68094299 119.54397583 171.68928528 C120.63753387 171.67800598 121.73109192 171.66672668 122.85778809 171.65510559 C123.80757034 171.65359749 124.7573526 171.65208939 125.73591614 171.65053558 C129.07589967 170.9810635 130.24227467 169.87387896 132.24719238 167.14717102 C132.84415358 164.59243203 132.84415358 164.59243203 132.75512695 161.75776672 C132.76640625 160.66420868 132.77768555 159.57065063 132.78930664 158.44395447 C132.78120972 157.24902374 132.77311279 156.05409302 132.76477051 154.82295227 C132.77177979 153.56082916 132.77878906 152.29870605 132.78601074 150.99833679 C132.80423961 147.53958131 132.79717881 144.0813033 132.7844944 140.62253952 C132.77436427 137.00223762 132.7837601 133.38197649 132.79003906 129.76167297 C132.79731547 123.68208987 132.78772809 117.60270117 132.76867676 111.52314758 C132.74690782 104.49522861 132.75395921 97.46777379 132.77598238 90.43986607 C132.79413672 84.40491292 132.7966946 78.37009947 132.7862277 72.33512783 C132.77999288 68.73110788 132.77915659 65.12730609 132.79237366 61.52330017 C132.80607837 57.50571725 132.78708218 53.48893398 132.76477051 49.47138977 C132.77286743 48.27645905 132.78096436 47.08152832 132.78930664 45.85038757 C132.77802734 44.75682953 132.76674805 43.66327148 132.75512695 42.53657532 C132.75361885 41.58679306 132.75211075 40.6370108 132.75055695 39.65844727 C132.08108486 36.31846374 130.97390033 35.15208873 128.24719238 33.14717102 C125.6924534 32.55020982 125.6924534 32.55020982 122.85778809 32.63923645 C121.21745102 32.6223175 121.21745102 32.6223175 119.54397583 32.60505676 C117.75157974 32.61720215 117.75157974 32.61720215 115.92297363 32.6295929 C114.66085052 32.62258362 113.39872742 32.61557434 112.09835815 32.60835266 C108.63960267 32.59012379 105.18132467 32.59718459 101.72256088 32.609869 C98.10225898 32.61999913 94.48199785 32.6106033 90.86169434 32.60432434 C84.78211124 32.59704793 78.70272253 32.60663531 72.62316895 32.62568665 C65.59524997 32.64745558 58.56779516 32.64040419 51.53988743 32.61838102 C45.50493428 32.60022668 39.47012083 32.5976688 33.43514919 32.6081357 C29.83112925 32.61437053 26.22732745 32.61520681 22.62332153 32.60198975 C18.60573861 32.58828503 14.58895535 32.60728122 10.57141113 32.6295929 C8.77901505 32.61744751 8.77901505 32.61744751 6.95040894 32.60505676 C5.85685089 32.61633606 4.76329285 32.62761536 3.63659668 32.63923645 C2.68681442 32.64074455 1.73703217 32.64225266 0.75846863 32.64380646 C-2.5815149 33.31327854 -3.7478899 34.42046308 -5.75280762 37.14717102 Z " fill="#000000" transform="translate(64.7528076171875,281.8528289794922)"/>
<path d="M0 0 C1.1492395 -0.0071553 2.298479 -0.01431061 3.48254395 -0.02168274 C5.36054688 -0.02571609 5.36054688 -0.02571609 7.27648926 -0.02983093 C8.61572443 -0.03610146 9.95495787 -0.04274878 11.29418945 -0.04974365 C15.68476158 -0.07072513 20.07533381 -0.08114393 24.46594238 -0.09111023 C25.98279335 -0.09516069 27.49964414 -0.0992777 29.01649475 -0.10346031 C36.14828388 -0.12250295 43.28006274 -0.13673311 50.41187239 -0.14507228 C58.61634789 -0.15482645 66.82055229 -0.18110199 75.02493238 -0.22157317 C81.38357238 -0.25185146 87.7421352 -0.26655239 94.10084581 -0.26985329 C97.89018337 -0.27219141 101.67923105 -0.28098793 105.4684906 -0.30631447 C109.04075342 -0.32980501 112.61253983 -0.33374565 116.18486023 -0.32355309 C118.09915284 -0.3228312 120.0134224 -0.34177606 121.9276123 -0.36161804 C135.09751939 -0.28357608 145.60433734 2.85028884 155.14562988 11.95967102 C162.33036325 19.47787302 165.35018656 28.6021762 165.3943634 38.89997864 C165.40509636 40.62383789 165.40509636 40.62383789 165.41604614 42.38252258 C165.41873505 43.63452454 165.42142395 44.88652649 165.42419434 46.1764679 C165.43046486 47.51570306 165.43711218 48.85493651 165.44410706 50.19416809 C165.46508854 54.58474022 165.47550733 58.97531244 165.48547363 63.36592102 C165.4895241 64.88277199 165.4936411 66.39962278 165.49782372 67.91647339 C165.51686635 75.04826251 165.53109651 82.18004138 165.53943568 89.31185102 C165.54918986 97.51632653 165.57546539 105.72053093 165.61593658 113.92491102 C165.64621487 120.28355101 165.66091579 126.64211384 165.6642167 133.00082445 C165.66655481 136.79016201 165.67535133 140.57920969 165.70067787 144.36846924 C165.72416841 147.94073205 165.72810905 151.51251847 165.71791649 155.08483887 C165.71719461 156.99913147 165.73613946 158.91340104 165.75598145 160.82759094 C165.67793948 173.99749803 162.54407456 184.50431598 153.43469238 194.04560852 C145.91649038 201.23034188 136.79218721 204.25016519 126.49438477 204.29434204 C124.77052551 204.305075 124.77052551 204.305075 123.01184082 204.31602478 C121.75983887 204.31871368 120.50783691 204.32140259 119.21789551 204.32417297 C117.87866034 204.3304435 116.53942689 204.33709082 115.20019531 204.34408569 C110.80962318 204.36506717 106.41905096 204.37548597 102.02844238 204.38545227 C100.51159142 204.38950273 98.99474062 204.39361974 97.47789001 204.39780235 C90.34610089 204.41684499 83.21432202 204.43107515 76.08251238 204.43941432 C67.87803688 204.44916849 59.67383247 204.47544403 51.46945238 204.51591522 C45.11081239 204.5461935 38.75224957 204.56089443 32.39353895 204.56419533 C28.60420139 204.56653345 24.81515371 204.57532997 21.02589417 204.60065651 C17.45363135 204.62414705 13.88184493 204.62808769 10.30952454 204.61789513 C8.39523193 204.61717324 6.48096237 204.6361181 4.56677246 204.65596008 C-8.60313463 204.57791812 -19.10995258 201.4440532 -28.65124512 192.33467102 C-35.83597848 184.81646902 -38.85580179 175.69216584 -38.89997864 165.3943634 C-38.90713394 164.2451239 -38.91428925 163.0958844 -38.92166138 161.91181946 C-38.92435028 160.6598175 -38.92703918 159.40781555 -38.92980957 158.11787415 C-38.9360801 156.77863898 -38.94272742 155.43940553 -38.94972229 154.10017395 C-38.97070377 149.70960182 -38.98112257 145.3190296 -38.99108887 140.92842102 C-38.99513933 139.41157005 -38.99925634 137.89471926 -39.00343895 136.37786865 C-39.02248158 129.24607953 -39.03671175 122.11430066 -39.04505092 114.98249102 C-39.05480509 106.77801551 -39.08108063 98.57381111 -39.12155181 90.36943102 C-39.1518301 84.01079103 -39.16653102 77.6522282 -39.16983193 71.29351759 C-39.17217005 67.50418003 -39.18096657 63.71513235 -39.20629311 59.9258728 C-39.22978365 56.35360999 -39.23372429 52.78182357 -39.22353172 49.20950317 C-39.22280984 47.29521057 -39.2417547 45.38094101 -39.26159668 43.4667511 C-39.18355471 30.29684401 -36.0496898 19.79002606 -26.94030762 10.24873352 C-19.42210562 3.06400016 -10.29780244 0.04417685 0 0 Z M-5.75280762 37.14717102 C-6.34976882 39.70191001 -6.34976882 39.70191001 -6.26074219 42.53657532 C-6.27202148 43.63013336 -6.28330078 44.72369141 -6.29492188 45.85038757 C-6.28682495 47.0453183 -6.27872803 48.24024902 -6.27038574 49.47138977 C-6.27739502 50.73351288 -6.2844043 51.99563599 -6.29162598 53.29600525 C-6.30985485 56.75476073 -6.30279405 60.21303874 -6.29010963 63.67180252 C-6.27997951 67.29210442 -6.28937533 70.91236556 -6.2956543 74.53266907 C-6.3029307 80.61225217 -6.29334333 86.69164087 -6.27429199 92.77119446 C-6.25252305 99.79911343 -6.25957445 106.82656825 -6.28159761 113.85447598 C-6.29975196 119.88942913 -6.30230984 125.92424258 -6.29184294 131.95921421 C-6.28560811 135.56323416 -6.28477183 139.16703596 -6.29798889 142.77104187 C-6.31169361 146.78862479 -6.29269742 150.80540806 -6.27038574 154.82295227 C-6.27848267 156.017883 -6.28657959 157.21281372 -6.29492188 158.44395447 C-6.28364258 159.53751251 -6.27236328 160.63107056 -6.26074219 161.75776672 C-6.25923409 162.70754898 -6.25772598 163.65733124 -6.25617218 164.63589478 C-5.58670009 167.9758783 -4.47951556 169.14225331 -1.75280762 171.14717102 C0.80193137 171.74413222 0.80193137 171.74413222 3.63659668 171.65510559 C4.73015472 171.66638489 5.82371277 171.67766418 6.95040894 171.68928528 C8.14533966 171.68118835 9.34027039 171.67309143 10.57141113 171.66474915 C11.83353424 171.67175842 13.09565735 171.6787677 14.39602661 171.68598938 C17.85478209 171.70421825 21.3130601 171.69715745 24.77182388 171.68447304 C28.39212578 171.67434291 32.01238692 171.68373874 35.63269043 171.6900177 C41.71227353 171.69729411 47.79166224 171.68770673 53.87121582 171.6686554 C60.8991348 171.64688646 67.92658961 171.65393785 74.95449734 171.67596102 C80.98945049 171.69411536 87.02426394 171.69667324 93.05923557 171.68620634 C96.66325552 171.67997151 100.26705732 171.67913523 103.87106323 171.69235229 C107.88864615 171.70605701 111.90542942 171.68706082 115.92297363 171.66474915 C117.11790436 171.67284607 118.31283508 171.68094299 119.54397583 171.68928528 C120.63753387 171.67800598 121.73109192 171.66672668 122.85778809 171.65510559 C123.80757034 171.65359749 124.7573526 171.65208939 125.73591614 171.65053558 C129.07589967 170.9810635 130.24227467 169.87387896 132.24719238 167.14717102 C132.84415358 164.59243203 132.84415358 164.59243203 132.75512695 161.75776672 C132.76640625 160.66420868 132.77768555 159.57065063 132.78930664 158.44395447 C132.78120972 157.24902374 132.77311279 156.05409302 132.76477051 154.82295227 C132.77177979 153.56082916 132.77878906 152.29870605 132.78601074 150.99833679 C132.80423961 147.53958131 132.79717881 144.0813033 132.7844944 140.62253952 C132.77436427 137.00223762 132.7837601 133.38197649 132.79003906 129.76167297 C132.79731547 123.68208987 132.78772809 117.60270117 132.76867676 111.52314758 C132.74690782 104.49522861 132.75395921 97.46777379 132.77598238 90.43986607 C132.79413672 84.40491292 132.7966946 78.37009947 132.7862277 72.33512783 C132.77999288 68.73110788 132.77915659 65.12730609 132.79237366 61.52330017 C132.80607837 57.50571725 132.78708218 53.48893398 132.76477051 49.47138977 C132.77286743 48.27645905 132.78096436 47.08152832 132.78930664 45.85038757 C132.77802734 44.75682953 132.76674805 43.66327148 132.75512695 42.53657532 C132.75361885 41.58679306 132.75211075 40.6370108 132.75055695 39.65844727 C132.08108486 36.31846374 130.97390033 35.15208873 128.24719238 33.14717102 C125.6924534 32.55020982 125.6924534 32.55020982 122.85778809 32.63923645 C121.21745102 32.6223175 121.21745102 32.6223175 119.54397583 32.60505676 C117.75157974 32.61720215 117.75157974 32.61720215 115.92297363 32.6295929 C114.66085052 32.62258362 113.39872742 32.61557434 112.09835815 32.60835266 C108.63960267 32.59012379 105.18132467 32.59718459 101.72256088 32.609869 C98.10225898 32.61999913 94.48199785 32.6106033 90.86169434 32.60432434 C84.78211124 32.59704793 78.70272253 32.60663531 72.62316895 32.62568665 C65.59524997 32.64745558 58.56779516 32.64040419 51.53988743 32.61838102 C45.50493428 32.60022668 39.47012083 32.5976688 33.43514919 32.6081357 C29.83112925 32.61437053 26.22732745 32.61520681 22.62332153 32.60198975 C18.60573861 32.58828503 14.58895535 32.60728122 10.57141113 32.6295929 C8.77901505 32.61744751 8.77901505 32.61744751 6.95040894 32.60505676 C5.85685089 32.61633606 4.76329285 32.62761536 3.63659668 32.63923645 C2.68681442 32.64074455 1.73703217 32.64225266 0.75846863 32.64380646 C-2.5815149 33.31327854 -3.7478899 34.42046308 -5.75280762 37.14717102 Z " fill="#000000" transform="translate(320.7528076171875,25.852828979492188)"/>
<path d="M0 0 C1.1492395 -0.0071553 2.298479 -0.01431061 3.48254395 -0.02168274 C5.36054687 -0.02571609 5.36054687 -0.02571609 7.27648926 -0.02983093 C8.61572443 -0.03610146 9.95495787 -0.04274878 11.29418945 -0.04974365 C15.68476158 -0.07072513 20.07533381 -0.08114393 24.46594238 -0.09111023 C25.98279335 -0.09516069 27.49964414 -0.0992777 29.01649475 -0.10346031 C36.14828388 -0.12250295 43.28006274 -0.13673311 50.41187239 -0.14507228 C58.61634789 -0.15482645 66.82055229 -0.18110199 75.02493238 -0.22157317 C81.38357238 -0.25185146 87.7421352 -0.26655239 94.10084581 -0.26985329 C97.89018337 -0.27219141 101.67923105 -0.28098793 105.4684906 -0.30631447 C109.04075342 -0.32980501 112.61253983 -0.33374565 116.18486023 -0.32355309 C118.09915284 -0.3228312 120.0134224 -0.34177606 121.9276123 -0.36161804 C135.09751939 -0.28357608 145.60433734 2.85028884 155.14562988 11.95967102 C162.33036325 19.47787302 165.35018656 28.6021762 165.3943634 38.89997864 C165.40509636 40.62383789 165.40509636 40.62383789 165.41604614 42.38252258 C165.41873505 43.63452454 165.42142395 44.88652649 165.42419434 46.1764679 C165.43046486 47.51570306 165.43711218 48.85493651 165.44410706 50.19416809 C165.46508854 54.58474022 165.47550733 58.97531244 165.48547363 63.36592102 C165.4895241 64.88277199 165.4936411 66.39962278 165.49782372 67.91647339 C165.51686635 75.04826251 165.53109651 82.18004138 165.53943568 89.31185102 C165.54918986 97.51632653 165.57546539 105.72053093 165.61593658 113.92491102 C165.64621487 120.28355101 165.66091579 126.64211384 165.6642167 133.00082445 C165.66655481 136.79016201 165.67535133 140.57920969 165.70067787 144.36846924 C165.72416841 147.94073205 165.72810905 151.51251847 165.71791649 155.08483887 C165.71719461 156.99913147 165.73613946 158.91340104 165.75598145 160.82759094 C165.67793948 173.99749803 162.54407456 184.50431598 153.43469238 194.04560852 C145.91649038 201.23034188 136.79218721 204.25016519 126.49438477 204.29434204 C124.77052551 204.305075 124.77052551 204.305075 123.01184082 204.31602478 C121.75983887 204.31871368 120.50783691 204.32140259 119.21789551 204.32417297 C117.87866034 204.3304435 116.53942689 204.33709082 115.20019531 204.34408569 C110.80962318 204.36506717 106.41905096 204.37548597 102.02844238 204.38545227 C100.51159142 204.38950273 98.99474062 204.39361974 97.47789001 204.39780235 C90.34610089 204.41684499 83.21432202 204.43107515 76.08251238 204.43941432 C67.87803688 204.44916849 59.67383247 204.47544403 51.46945238 204.51591522 C45.11081239 204.5461935 38.75224957 204.56089443 32.39353895 204.56419533 C28.60420139 204.56653345 24.81515371 204.57532997 21.02589417 204.60065651 C17.45363135 204.62414705 13.88184493 204.62808769 10.30952454 204.61789513 C8.39523193 204.61717324 6.48096237 204.6361181 4.56677246 204.65596008 C-8.60313463 204.57791812 -19.10995258 201.4440532 -28.65124512 192.33467102 C-35.83597848 184.81646902 -38.85580179 175.69216584 -38.89997864 165.3943634 C-38.90713394 164.2451239 -38.91428925 163.0958844 -38.92166138 161.91181946 C-38.92435028 160.6598175 -38.92703918 159.40781555 -38.92980957 158.11787415 C-38.9360801 156.77863898 -38.94272742 155.43940553 -38.94972229 154.10017395 C-38.97070377 149.70960182 -38.98112257 145.3190296 -38.99108887 140.92842102 C-38.99513933 139.41157005 -38.99925634 137.89471926 -39.00343895 136.37786865 C-39.02248158 129.24607953 -39.03671175 122.11430066 -39.04505092 114.98249102 C-39.05480509 106.77801551 -39.08108063 98.57381111 -39.12155181 90.36943102 C-39.1518301 84.01079103 -39.16653102 77.6522282 -39.16983193 71.29351759 C-39.17217005 67.50418003 -39.18096657 63.71513235 -39.20629311 59.9258728 C-39.22978365 56.35360999 -39.23372429 52.78182357 -39.22353172 49.20950317 C-39.22280984 47.29521057 -39.2417547 45.38094101 -39.26159668 43.4667511 C-39.18355471 30.29684401 -36.0496898 19.79002606 -26.94030762 10.24873352 C-19.42210562 3.06400016 -10.29780244 0.04417685 0 0 Z M-5.75280762 37.14717102 C-6.34976882 39.70191001 -6.34976882 39.70191001 -6.26074219 42.53657532 C-6.27202148 43.63013336 -6.28330078 44.72369141 -6.29492188 45.85038757 C-6.28682495 47.0453183 -6.27872803 48.24024902 -6.27038574 49.47138977 C-6.27739502 50.73351288 -6.2844043 51.99563599 -6.29162598 53.29600525 C-6.30985485 56.75476073 -6.30279405 60.21303874 -6.29010963 63.67180252 C-6.27997951 67.29210442 -6.28937533 70.91236556 -6.2956543 74.53266907 C-6.3029307 80.61225217 -6.29334333 86.69164087 -6.27429199 92.77119446 C-6.25252305 99.79911343 -6.25957445 106.82656825 -6.28159761 113.85447598 C-6.29975196 119.88942913 -6.30230984 125.92424258 -6.29184294 131.95921421 C-6.28560811 135.56323416 -6.28477183 139.16703596 -6.29798889 142.77104187 C-6.31169361 146.78862479 -6.29269742 150.80540806 -6.27038574 154.82295227 C-6.27848267 156.017883 -6.28657959 157.21281372 -6.29492188 158.44395447 C-6.28364258 159.53751251 -6.27236328 160.63107056 -6.26074219 161.75776672 C-6.25923409 162.70754898 -6.25772598 163.65733124 -6.25617218 164.63589478 C-5.58670009 167.9758783 -4.47951556 169.14225331 -1.75280762 171.14717102 C0.80193137 171.74413222 0.80193137 171.74413222 3.63659668 171.65510559 C4.73015472 171.66638489 5.82371277 171.67766418 6.95040894 171.68928528 C8.14533966 171.68118835 9.34027039 171.67309143 10.57141113 171.66474915 C11.83353424 171.67175842 13.09565735 171.6787677 14.39602661 171.68598938 C17.85478209 171.70421825 21.3130601 171.69715745 24.77182388 171.68447304 C28.39212578 171.67434291 32.01238692 171.68373874 35.63269043 171.6900177 C41.71227353 171.69729411 47.79166224 171.68770673 53.87121582 171.6686554 C60.8991348 171.64688646 67.92658961 171.65393785 74.95449734 171.67596102 C80.98945049 171.69411536 87.02426394 171.69667324 93.05923557 171.68620634 C96.66325552 171.67997151 100.26705732 171.67913523 103.87106323 171.69235229 C107.88864615 171.70605701 111.90542942 171.68706082 115.92297363 171.66474915 C117.11790436 171.67284607 118.31283508 171.68094299 119.54397583 171.68928528 C120.63753387 171.67800598 121.73109192 171.66672668 122.85778809 171.65510559 C123.80757034 171.65359749 124.7573526 171.65208939 125.73591614 171.65053558 C129.07589967 170.9810635 130.24227467 169.87387896 132.24719238 167.14717102 C132.84415358 164.59243203 132.84415358 164.59243203 132.75512695 161.75776672 C132.76640625 160.66420868 132.77768555 159.57065063 132.78930664 158.44395447 C132.78120972 157.24902374 132.77311279 156.05409302 132.76477051 154.82295227 C132.77177979 153.56082916 132.77878906 152.29870605 132.78601074 150.99833679 C132.80423961 147.53958131 132.79717881 144.0813033 132.7844944 140.62253952 C132.77436427 137.00223762 132.7837601 133.38197649 132.79003906 129.76167297 C132.79731547 123.68208987 132.78772809 117.60270117 132.76867676 111.52314758 C132.74690782 104.49522861 132.75395921 97.46777379 132.77598238 90.43986607 C132.79413672 84.40491292 132.7966946 78.37009947 132.7862277 72.33512783 C132.77999288 68.73110788 132.77915659 65.12730609 132.79237366 61.52330017 C132.80607837 57.50571725 132.78708218 53.48893398 132.76477051 49.47138977 C132.77286743 48.27645905 132.78096436 47.08152832 132.78930664 45.85038757 C132.77802734 44.75682953 132.76674805 43.66327148 132.75512695 42.53657532 C132.75361885 41.58679306 132.75211075 40.6370108 132.75055695 39.65844727 C132.08108486 36.31846374 130.97390033 35.15208873 128.24719238 33.14717102 C125.6924534 32.55020982 125.6924534 32.55020982 122.85778809 32.63923645 C121.21745102 32.6223175 121.21745102 32.6223175 119.54397583 32.60505676 C117.75157974 32.61720215 117.75157974 32.61720215 115.92297363 32.6295929 C114.66085052 32.62258362 113.39872742 32.61557434 112.09835815 32.60835266 C108.63960267 32.59012379 105.18132467 32.59718459 101.72256088 32.609869 C98.10225898 32.61999913 94.48199785 32.6106033 90.86169434 32.60432434 C84.78211124 32.59704793 78.70272253 32.60663531 72.62316895 32.62568665 C65.59524997 32.64745558 58.56779516 32.64040419 51.53988743 32.61838102 C45.50493428 32.60022668 39.47012083 32.5976688 33.43514919 32.6081357 C29.83112925 32.61437053 26.22732745 32.61520681 22.62332153 32.60198975 C18.60573861 32.58828503 14.58895535 32.60728122 10.57141113 32.6295929 C8.77901505 32.61744751 8.77901505 32.61744751 6.95040894 32.60505676 C5.85685089 32.61633606 4.76329285 32.62761536 3.63659668 32.63923645 C2.68681442 32.64074455 1.73703217 32.64225266 0.75846863 32.64380646 C-2.5815149 33.31327854 -3.7478899 34.42046308 -5.75280762 37.14717102 Z " fill="#000000" transform="translate(64.7528076171875,25.852828979492188)"/>
<path d="M0 0 C6.19085852 4.25414723 11.60890146 9.31120011 16.90307617 14.61254883 C17.63602402 15.33877945 18.36897186 16.06501007 19.12413025 16.81324768 C21.51899913 19.18928848 23.90641704 21.57263857 26.29296875 23.95703125 C27.96952702 25.62715324 29.64623135 27.29712861 31.32307434 28.96696472 C34.8256296 32.45758679 38.32406938 35.95227508 41.82006836 39.44946289 C46.28508941 43.9146874 50.76372807 48.36597706 55.24601269 52.8138628 C58.709412 56.25495805 62.16361526 59.70517327 65.61535072 63.15796471 C67.26224199 64.80250713 68.91235137 66.44383377 70.56581688 68.08176613 C72.88192971 70.37814024 75.18485842 72.68701714 77.48510742 74.99926758 C78.16005249 75.66297363 78.83499756 76.32667969 79.53039551 77.01049805 C88.97952999 86.58452053 93.43690752 96.33662347 93.36352539 109.86547852 C92.98312659 124.56577895 84.33111553 133.97286799 74.38745117 143.90307617 C73.66122055 144.63602402 72.93498993 145.36897186 72.18675232 146.12413025 C69.81071152 148.51899913 67.42736143 150.90641704 65.04296875 153.29296875 C63.37284676 154.96952702 61.70287139 156.64623135 60.03303528 158.32307434 C56.54241321 161.8256296 53.04772492 165.32406938 49.55053711 168.82006836 C45.0853126 173.28508941 40.63402294 177.76372807 36.1861372 182.24601269 C32.74504195 185.709412 29.29482673 189.16361526 25.84203529 192.61535072 C24.19749287 194.26224199 22.55616623 195.91235137 20.91823387 197.56581688 C18.62185976 199.88192971 16.31298286 202.18485842 14.00073242 204.48510742 C13.33702637 205.16005249 12.67332031 205.83499756 11.98950195 206.53039551 C2.41547947 215.97952999 -7.33662347 220.43690752 -20.86547852 220.36352539 C-35.56577895 219.98312659 -44.97286799 211.33111553 -54.90307617 201.38745117 C-55.63602402 200.66122055 -56.36897186 199.93498993 -57.12413025 199.18675232 C-59.51899913 196.81071152 -61.90641704 194.42736143 -64.29296875 192.04296875 C-65.96952702 190.37284676 -67.64623135 188.70287139 -69.32307434 187.03303528 C-72.8256296 183.54241321 -76.32406938 180.04772492 -79.82006836 176.55053711 C-84.28508941 172.0853126 -88.76372807 167.63402294 -93.24601269 163.1861372 C-96.709412 159.74504195 -100.16361526 156.29482673 -103.61535072 152.84203529 C-105.26224199 151.19749287 -106.91235137 149.55616623 -108.56581688 147.91823387 C-110.88192971 145.62185976 -113.18485842 143.31298286 -115.48510742 141.00073242 C-116.16005249 140.33702637 -116.83499756 139.67332031 -117.53039551 138.98950195 C-126.97952999 129.41547947 -131.43690752 119.66337653 -131.36352539 106.13452148 C-130.98312659 91.43422105 -122.33111553 82.02713201 -112.38745117 72.09692383 C-111.66122055 71.36397598 -110.93498993 70.63102814 -110.18675232 69.87586975 C-107.81071152 67.48100087 -105.42736143 65.09358296 -103.04296875 62.70703125 C-101.37284676 61.03047298 -99.70287139 59.35376865 -98.03303528 57.67692566 C-94.54241321 54.1743704 -91.04772492 50.67593062 -87.55053711 47.17993164 C-83.0853126 42.71491059 -78.63402294 38.23627193 -74.1861372 33.75398731 C-70.74504195 30.290588 -67.29482673 26.83638474 -63.84203529 23.38464928 C-62.19749287 21.73775801 -60.55616623 20.08764863 -58.91823387 18.43418312 C-56.62185976 16.11807029 -54.31298286 13.81514158 -52.00073242 11.51489258 C-51.33702637 10.83994751 -50.67332031 10.16500244 -49.98950195 9.46960449 C-36.45336193 -3.88996382 -17.45075911 -9.03243208 0 0 Z M-29.65771484 35.88134766 C-30.39986237 36.61298126 -31.14200989 37.34461487 -31.90664673 38.09841919 C-34.35672633 40.52208164 -36.78419531 42.96704926 -39.2109375 45.4140625 C-40.90542347 47.10450747 -42.60079933 48.79406086 -44.29702759 50.48275757 C-47.84898105 54.02586203 -51.38984728 57.57960058 -54.92333984 61.14111328 C-59.45620029 65.70815789 -64.01546249 70.24773904 -68.58336449 74.77970314 C-72.08917893 78.26384858 -75.58059133 81.76214387 -79.06779861 85.26490402 C-80.74355103 86.94466232 -82.42378129 88.61996559 -84.10850143 90.29072952 C-86.46003736 92.62704714 -88.79151097 94.98170168 -91.11865234 97.34228516 C-92.17049713 98.37591187 -92.17049713 98.37591187 -93.24359131 99.43041992 C-95.98237759 102.24266376 -97.76779866 104.19015395 -98.86016846 108 C-97.52301899 112.66356138 -94.52571885 115.30965914 -91.11865234 118.65771484 C-90.38701874 119.39986237 -89.65538513 120.14200989 -88.90158081 120.90664673 C-86.47791836 123.35672633 -84.03295074 125.78419531 -81.5859375 128.2109375 C-79.89549253 129.90542347 -78.20593914 131.60079933 -76.51724243 133.29702759 C-72.97413797 136.84898105 -69.42039942 140.38984728 -65.85888672 143.92333984 C-61.29184211 148.45620029 -56.75226096 153.01546249 -52.22029686 157.58336449 C-48.73615142 161.08917893 -45.23785613 164.58059133 -41.73509598 168.06779861 C-40.05533768 169.74355103 -38.38003441 171.42378129 -36.70927048 173.10850143 C-34.37295286 175.46003736 -32.01829832 177.79151097 -29.65771484 180.11865234 C-28.96863037 180.8198822 -28.2795459 181.52111206 -27.56958008 182.24359131 C-24.75733624 184.98237759 -22.80984605 186.76779866 -19 187.86016846 C-14.33643862 186.52301899 -11.69034086 183.52571885 -8.34228516 180.11865234 C-7.22906387 179.02120193 -7.22906387 179.02120193 -6.09335327 177.90158081 C-3.64327367 175.47791836 -1.21580469 173.03295074 1.2109375 170.5859375 C2.90542347 168.89549253 4.60079933 167.20593914 6.29702759 165.51724243 C9.84898105 161.97413797 13.38984728 158.42039942 16.92333984 154.85888672 C21.45620029 150.29184211 26.01546249 145.75226096 30.58336449 141.22029686 C34.08917893 137.73615142 37.58059133 134.23785613 41.06779861 130.73509598 C42.74355103 129.05533768 44.42378129 127.38003441 46.10850143 125.70927048 C48.46003736 123.37295286 50.79151097 121.01829832 53.11865234 118.65771484 C53.8198822 117.96863037 54.52111206 117.2795459 55.24359131 116.56958008 C57.98237759 113.75733624 59.76779866 111.80984605 60.86016846 108 C59.52301899 103.33643862 56.52571885 100.69034086 53.11865234 97.34228516 C52.02120193 96.22906387 52.02120193 96.22906387 50.90158081 95.09335327 C48.47791836 92.64327367 46.03295074 90.21580469 43.5859375 87.7890625 C41.89549253 86.09457653 40.20593914 84.39920067 38.51724243 82.70297241 C34.97413797 79.15101895 31.42039942 75.61015272 27.85888672 72.07666016 C23.29184211 67.54379971 18.75226096 62.98453751 14.22029686 58.41663551 C10.73615142 54.91082107 7.23785613 51.41940867 3.73509598 47.93220139 C2.05533768 46.25644897 0.38003441 44.57621871 -1.29072952 42.89149857 C-3.62704714 40.53996264 -5.98170168 38.20848903 -8.34228516 35.88134766 C-9.37591187 34.82950287 -9.37591187 34.82950287 -10.43041992 33.75640869 C-13.24266376 31.01762241 -15.19015395 29.23220134 -19 28.13983154 C-23.66356138 29.47698101 -26.30965914 32.47428115 -29.65771484 35.88134766 Z " fill="#000000" transform="translate(403,276)"/>
</svg>
