
<svg version="1.1" xmlns="http://www.w3.org/2000/svg" width="512" height="512">
<path d="M0 0 C2.65527344 1.25244141 2.65527344 1.25244141 5.359375 2.8515625 C6.88884766 3.74584961 6.88884766 3.74584961 8.44921875 4.65820312 C9.53847656 5.30724609 10.62773437 5.95628906 11.75 6.625 C12.90697352 7.30502178 14.06453713 7.98404047 15.22265625 8.66210938 C17.62665148 10.07067324 20.02805773 11.48350641 22.42773438 12.89941406 C27.9283488 16.14016978 33.46603409 19.31666323 39 22.5 C41.16684034 23.74969892 43.3335065 24.99969989 45.5 26.25 C47.10875 27.178125 47.10875 27.178125 48.75 28.125 C60.66666667 35 72.58333333 41.875 84.5 48.75 C85.51474648 49.33302635 86.52949295 49.9160527 87.57498932 50.51674652 C89.72425758 51.76128097 91.86618526 53.0186739 93.99697113 54.29459381 C99.54989714 57.59096068 104.91677409 60.46774819 110.89221191 62.92712402 C127.95469537 70.38776304 127.95469537 70.38776304 131.37692261 78.10501099 C133.24886358 86.57030965 132.59810311 95.1179295 131.98195076 103.69122124 C131.74799626 107.44095428 131.68685498 111.19314599 131.6126709 114.94885254 C131.3782245 125.28086758 130.88243352 135.59701376 130.3829422 145.91899872 C129.92727313 155.39201812 129.52939888 164.85860175 129.3420949 174.34121275 C129.26214642 178.0702832 129.12792152 181.77998955 128.86051941 185.50068665 C127.76295075 199.0403709 127.76295075 199.0403709 131 212 C137.30316883 218.7428647 145.56069547 222.31773087 153.99440956 225.74730396 C157.69395126 227.28923102 160.97204652 229.15854731 164.3828125 231.25390625 C165.34815918 231.81005615 166.31350586 232.36620605 167.30810547 232.93920898 C177.49130609 238.80747913 187.65282548 244.71113682 197.79663086 250.6472168 C203.27132451 253.84458214 208.76071707 257.01425363 214.26953125 260.15234375 C214.88739502 260.50443405 215.50525879 260.85652435 216.1418457 261.21928406 C219.13340208 262.92314311 222.12673564 264.62371289 225.12255859 266.32006836 C227.26051956 267.53528249 229.38941729 268.76666026 231.50645161 270.01797485 C233.79133266 271.35003596 236.01735336 272.47075271 238.43159008 273.58787537 C247.28062295 278.0387877 247.28062295 278.0387877 249.17354774 283.19940186 C249.60239155 287.21213768 249.61146267 291.11429843 249.47583008 295.13671875 C249.47215866 296.66496973 249.47423021 298.19324362 249.48158264 299.72148132 C249.48530045 303.85307171 249.40910814 307.97971668 249.31812119 312.11016083 C249.23662904 316.43272024 249.22920078 320.75540424 249.21379089 325.07861328 C249.17344814 333.25698298 249.06686414 341.43308275 248.93624753 349.61045456 C248.79073597 358.92332135 248.71941439 368.23629892 248.65420687 377.55002022 C248.518468 396.70129857 248.2899407 415.85046656 248 435 C247.22053009 435.44508408 246.44106018 435.89016815 245.63796997 436.34873962 C242.67789401 438.03913083 239.71794968 439.72975208 236.75808716 441.42051697 C235.48978658 442.14495056 234.22143725 442.8692988 232.95303345 443.59355164 C221.02060474 450.40705304 209.11507293 457.26643475 197.21777344 464.14111328 C191.81329355 467.26324605 186.40652588 470.38141204 181 473.5 C178.8333225 474.74998122 176.66665583 475.99998121 174.5 477.25 C170.16666667 479.75 165.83333333 482.25 161.5 484.75 C160.42588867 485.37003906 159.35177734 485.99007813 158.24511719 486.62890625 C156.09598426 487.86806926 153.9456082 489.10507894 151.79394531 490.33984375 C146.70898524 493.26141814 141.63959655 496.20344899 136.61242676 499.2232666 C134.23637058 500.64877251 131.85313376 502.06201836 129.46923828 503.47436523 C127.78875017 504.47688307 126.11882645 505.49704276 124.44921875 506.51757812 C123.42957031 507.12021484 122.40992188 507.72285156 121.359375 508.34375 C120.46702148 508.88193359 119.57466797 509.42011719 118.65527344 509.97460938 C115.27755256 511.27898853 113.463181 510.96648899 110 510 C107.56005859 508.85522461 107.56005859 508.85522461 105.1484375 507.40234375 C104.22933594 506.85642578 103.31023437 506.31050781 102.36328125 505.74804688 C100.88408203 504.85182617 100.88408203 504.85182617 99.375 503.9375 C97.21695671 502.65358399 95.05806784 501.37108843 92.8984375 500.08984375 C91.77018555 499.41808105 90.64193359 498.74631836 89.47949219 498.05419922 C84.27989074 494.97263578 79.02306227 491.99129461 73.76831055 489.00512695 C63.46320129 483.14759074 53.1986086 477.22365024 42.96826172 471.23632812 C34.30242125 466.16689111 25.60706716 461.14963486 16.90185547 456.14819336 C15.3764917 455.27046265 15.3764917 455.27046265 13.8203125 454.375 C12.35319824 453.53582031 12.35319824 453.53582031 10.85644531 452.6796875 C8.94709093 451.55692185 7.0603785 450.39476454 5.19824219 449.1953125 C3.88968262 448.35613281 3.88968262 448.35613281 2.5546875 447.5 C1.79397949 446.9946875 1.03327148 446.489375 0.24951172 445.96875 C-2.632174 444.72775489 -4.04114246 445.06800874 -7 446 C-8.85276674 446.7790836 -8.85276674 446.7790836 -10.58203125 447.79296875 C-11.58943359 448.35600708 -11.58943359 448.35600708 -12.6171875 448.93041992 C-13.34164062 449.34525635 -14.06609375 449.76009277 -14.8125 450.1875 C-15.59238281 450.62747314 -16.37226563 451.06744629 -17.17578125 451.52075195 C-25.71981924 456.36265161 -34.19012053 461.33372771 -42.6640625 466.296875 C-49.05282002 470.03634595 -55.4611678 473.74123797 -61.875 477.4375 C-63.48677124 478.36647095 -63.48677124 478.36647095 -65.13110352 479.31420898 C-67.31631145 480.57340672 -69.50161457 481.83243927 -71.68701172 483.09130859 C-76.16391705 485.67056032 -80.63982183 488.25154122 -85.11474609 490.83422852 C-87.30780134 492.09865941 -89.50211351 493.36091308 -91.69775391 494.62084961 C-96.71334358 497.50264416 -101.70491355 500.4114267 -106.64453125 503.421875 C-107.94596069 504.20546387 -107.94596069 504.20546387 -109.27368164 505.00488281 C-110.87123 505.96942843 -112.46098264 506.94706358 -114.04077148 507.94042969 C-114.74403564 508.36227539 -115.4472998 508.78412109 -116.171875 509.21875 C-117.0705127 509.7746582 -117.0705127 509.7746582 -117.98730469 510.34179688 C-121.83545543 511.60024112 -125.10404162 510.42260633 -128.65527344 508.74755859 C-129.54762695 508.21984863 -130.43998047 507.69213867 -131.359375 507.1484375 C-132.37902344 506.55224609 -133.39867187 505.95605469 -134.44921875 505.34179688 C-136.08310547 504.36823242 -136.08310547 504.36823242 -137.75 503.375 C-138.90697352 502.69497822 -140.06453713 502.01595953 -141.22265625 501.33789062 C-143.62665148 499.92932676 -146.02805773 498.51649359 -148.42773438 497.10058594 C-153.9283488 493.85983022 -159.46603409 490.68333677 -165 487.5 C-167.16684034 486.25030108 -169.3335065 485.00030011 -171.5 483.75 C-172.5725 483.13125 -173.645 482.5125 -174.75 481.875 C-201.83333333 466.25 -228.91666667 450.625 -256 435 C-256.51504115 415.01633462 -256.90239465 395.03402344 -257.13986778 375.04508686 C-257.2530911 365.76241419 -257.40726811 356.48387509 -257.65966797 347.20385742 C-257.87969246 339.11029605 -258.02104067 331.01972729 -258.06994689 322.92325848 C-258.09852638 318.63835326 -258.16506409 314.36200358 -258.32606125 310.07985878 C-259.26658644 284.07795413 -259.26658644 284.07795413 -253.84719849 277.31247711 C-248.65165389 272.93125684 -242.93997782 270.27665991 -236.58761215 267.97736549 C-233.13066598 266.67164435 -230.20899123 264.9295288 -227.078125 262.9765625 C-225.13611511 261.85816133 -223.19341594 260.74095612 -221.25 259.625 C-219.04685608 258.35680371 -216.84373165 257.08857355 -214.640625 255.8203125 C-213.54298828 255.18899414 -212.44535156 254.55767578 -211.31445312 253.90722656 C-205.87349445 250.77635081 -200.436913 247.63789423 -195 244.5 C-188.39594361 240.68894969 -181.79115023 236.87919812 -175.18359375 233.07421875 C-174.05373047 232.42324219 -172.92386719 231.77226562 -171.75976562 231.1015625 C-169.64554146 229.88349096 -167.53099381 228.6659806 -165.41601562 227.44921875 C-163.4527135 226.31778072 -161.50624813 225.15652584 -159.57943726 223.96400452 C-157.02175782 222.45859301 -154.534832 221.46336981 -151.71902466 220.53611755 C-146.61337429 218.61748227 -142.31818046 216.44895591 -139 212 C-135.96634465 202.96202117 -136.83542961 192.75311383 -137.07437396 183.32177496 C-137.15294997 179.5088579 -137.13451723 175.69638537 -137.12672424 171.88284302 C-137.12655656 164.67441893 -137.21261548 157.46975274 -137.33029372 150.26239407 C-137.4601032 142.05205067 -137.49283596 133.84219697 -137.51774108 125.63096976 C-137.57109351 108.75223295 -137.74529449 91.87687518 -138 75 C-137.33736239 74.62593175 -136.67472479 74.2518635 -135.99200726 73.86645985 C-132.96346135 72.15653335 -129.9352195 70.44606907 -126.90698242 68.7355957 C-125.86455132 68.14714119 -124.82212021 67.55868668 -123.74810028 66.95240021 C-116.90294326 63.08532933 -110.08677033 59.17754005 -103.3125 55.1875 C-94.57493049 50.06587742 -85.79983667 45.01352288 -77 40 C-67.29263409 34.46827468 -57.61855164 28.88292334 -47.97485352 23.24072266 C-40.31115156 18.7586279 -32.62877938 14.30953178 -24.9375 9.875 C-23.84872559 9.247146 -22.75995117 8.61929199 -21.63818359 7.97241211 C-19.62986014 6.81504913 -17.61896513 5.66213176 -15.60498047 4.51464844 C-14.02113976 3.59373487 -12.45234089 2.64532308 -10.91455078 1.64941406 C-6.76620882 -1.00271159 -4.72616641 -1.16288907 0 0 Z M-11.1640625 37.75390625 C-12.70320313 38.65302734 -12.70320313 38.65302734 -14.2734375 39.5703125 C-15.37945312 40.22773437 -16.48546875 40.88515625 -17.625 41.5625 C-18.7911293 42.24701002 -19.9578057 42.93058879 -21.125 43.61328125 C-23.55064254 45.03301526 -25.97387561 46.45673795 -28.39550781 47.88330078 C-33.90854758 51.12653688 -39.45588849 54.31028361 -45 57.5 C-47.14209295 58.73538953 -49.28401901 59.97106847 -51.42578125 61.20703125 C-52.49521973 61.82400879 -53.5646582 62.44098633 -54.66650391 63.07666016 C-57.56503518 64.74903671 -60.46344956 66.42161547 -63.36178589 68.09432983 C-65.15066918 69.12673478 -66.93958717 70.15907956 -68.72851562 71.19140625 C-70.97337636 72.48685948 -73.2181719 73.7824257 -75.46289062 75.078125 C-80.63571774 78.06307914 -85.81145009 81.04245317 -91 84 C-87.69461423 86.75746999 -84.41057543 89.02895473 -80.640625 91.1015625 C-79.10450562 91.9522229 -79.10450562 91.9522229 -77.53735352 92.82006836 C-76.45252686 93.4156958 -75.3677002 94.01132324 -74.25 94.625 C-66.97686552 98.65707806 -59.71236321 102.68992215 -52.5625 106.9375 C-44.22864172 111.88556508 -35.83373892 116.72533307 -27.43383789 121.56030273 C-26.38703857 122.16302002 -25.34023926 122.7657373 -24.26171875 123.38671875 C-23.22837402 123.97630371 -22.1950293 124.56588867 -21.13037109 125.17333984 C-18.9807055 126.42773057 -16.85410029 127.72223173 -14.74853516 129.04931641 C-13.70358887 129.6994873 -12.65864258 130.3496582 -11.58203125 131.01953125 C-10.65237549 131.61483643 -9.72271973 132.2101416 -8.76489258 132.82348633 C-5.298595 134.29846099 -3.59055952 134.03138459 0 133 C2.47998858 131.88771182 2.47998858 131.88771182 4.8515625 130.40234375 C5.77066406 129.85642578 6.68976563 129.31050781 7.63671875 128.74804688 C8.62285156 128.15056641 9.60898437 127.55308594 10.625 126.9375 C12.78304329 125.65358399 14.94193216 124.37108843 17.1015625 123.08984375 C18.22981445 122.41808105 19.35806641 121.74631836 20.52050781 121.05419922 C25.72183699 117.97161183 30.98041784 114.98927972 36.23690796 112.00210571 C47.8892015 105.37917869 59.4844838 98.66272879 71.05078125 91.890625 C75.01942419 89.56773739 79.00200388 87.27196469 83 85 C78.99347202 81.56138764 74.80712099 79.10995957 70.1875 76.625 C62.9298127 72.65714497 55.75890233 68.56115007 48.625 64.375 C38.33259138 58.33993247 27.9885987 52.40063632 17.61572266 46.50537109 C16.5076123 45.87453613 15.39950195 45.24370117 14.2578125 44.59375 C13.19852539 43.99175781 12.13923828 43.38976562 11.04785156 42.76953125 C7.34586941 40.6202228 3.72053104 38.35856708 0.11669922 36.04882812 C-4.36934676 33.82598458 -7.21363704 35.42193548 -11.1640625 37.75390625 Z M-107 112 C-107 145 -107 178 -107 212 C-94.13 219.425 -94.13 219.425 -81 227 C-68 234.5 -68 234.5 -61.5703125 238.2109375 C-57.60328016 240.49983986 -53.63468798 242.78598811 -49.66400146 245.06854248 C-47.88250422 246.09275665 -46.10135678 247.11757651 -44.3203125 248.14257812 C-42.08923375 249.42633375 -39.85750427 250.70895939 -37.625 251.99023438 C-33.15786352 254.56196371 -28.72384605 257.149475 -24.3828125 259.9296875 C-21.37669603 262.17400255 -21.37669603 262.17400255 -19 262 C-18.69848506 249.10044089 -18.46765528 236.20172254 -18.32644176 223.29935455 C-18.25865537 217.3076768 -18.1667652 211.31841311 -18.01928711 205.328125 C-17.87778578 199.54424955 -17.80025903 193.76269155 -17.76659584 187.97721863 C-17.74261641 185.77291872 -17.69578308 183.56874268 -17.62550926 181.36543274 C-16.77245125 170.36069876 -16.77245125 170.36069876 -20.23359489 160.32461739 C-23.69874724 157.20057827 -27.66811382 155.66622711 -32 154 C-34.17871187 152.7812931 -36.34177074 151.5337283 -38.48046875 150.24609375 C-40.71499584 148.97453946 -42.95071158 147.70507216 -45.1875 146.4375 C-47.64906198 145.0375546 -50.10965367 143.63590707 -52.5703125 142.234375 C-53.49829399 141.70622444 -53.49829399 141.70622444 -54.44502258 141.16740417 C-60.83121486 137.53113755 -67.19832973 133.8621775 -73.5625 130.1875 C-74.62686279 129.57374512 -75.69122559 128.95999023 -76.7878418 128.32763672 C-81.79325749 125.43916659 -86.79203179 122.54023321 -91.77734375 119.6171875 C-92.66413818 119.09874268 -93.55093262 118.58029785 -94.46459961 118.04614258 C-96.10953492 117.08357427 -97.75240941 116.11747221 -99.39282227 115.1472168 C-102.95744202 112.83017223 -102.95744202 112.83017223 -107 112 Z M91.59375 114.97265625 C90.47081543 115.61726807 89.34788086 116.26187988 88.19091797 116.92602539 C86.96055897 117.638092 85.73025442 118.35025272 84.5 119.0625 C83.22954271 119.793909 81.95886921 120.52494258 80.68798828 121.25561523 C77.41806815 123.13695711 74.15108313 125.02333366 70.8848877 126.91113281 C68.01596273 128.5684614 65.14463009 130.22160385 62.2734375 131.875 C58.01632769 134.32745141 53.76129385 136.78344874 49.5078125 139.2421875 C45.54881279 141.530173 41.58709306 143.81328539 37.62149048 146.08979797 C35.23750164 147.45843014 32.85436236 148.82853808 30.47125244 150.19869995 C28.79788357 151.15999255 27.12332408 152.11921166 25.44873047 153.07836914 C24.42924316 153.66481201 23.40975586 154.25125488 22.359375 154.85546875 C21.02084473 155.62346802 21.02084473 155.62346802 19.65527344 156.40698242 C18.34091309 157.19552612 18.34091309 157.19552612 17 158 C15.45392563 158.74123863 15.45392563 158.74123863 13.87661743 159.49745178 C10.76659741 162.20305141 10.57303711 162.45269669 10.2784729 166.27740479 C10.26108485 168.06283226 10.27702493 169.8487668 10.31884766 171.63378906 C10.3179715 172.60973022 10.31709534 173.58567139 10.31619263 174.59118652 C10.32037262 177.81681376 10.36704605 181.04036113 10.4140625 184.265625 C10.42525312 186.50192122 10.43379394 188.73823215 10.43978882 190.97454834 C10.46269733 196.86039852 10.52163938 202.74536023 10.5880127 208.63085938 C10.64939081 214.63659648 10.67679436 220.64247716 10.70703125 226.6484375 C10.77137952 238.43268202 10.87378456 250.21626713 11 262 C14.79130874 260.52122382 18.23693832 258.82498817 21.76953125 256.796875 C22.89311035 256.15355225 24.01668945 255.51022949 25.17431641 254.84741211 C26.38711721 254.14840128 27.59984319 253.44926061 28.8125 252.75 C30.07459978 252.0252852 31.33680831 251.30075976 32.59912109 250.57641602 C41.42739592 245.50508223 50.2286564 240.38757303 59.01611328 235.24584961 C67.83452622 230.08689355 76.6827021 224.98050678 85.53759766 219.88452148 C86.57062012 219.28969971 87.60364258 218.69487793 88.66796875 218.08203125 C89.57828857 217.55843018 90.4886084 217.0348291 91.42651367 216.49536133 C92.27576416 216.00189209 93.12501465 215.50842285 94 215 C94.86637085 214.67051361 95.7327417 214.34102722 96.62536621 214.0015564 C99.12346549 212.29668124 99.12346549 212.29668124 99.45115376 210.13152218 C99.61929007 207.5681598 99.61758249 205.04829043 99.56762695 202.47973633 C99.56835709 201.50394119 99.56908722 200.52814606 99.56983948 199.52278137 C99.5663513 196.29196917 99.52743085 193.06259211 99.48828125 189.83203125 C99.47895753 187.59430224 99.47183934 185.35656304 99.46684265 183.11882019 C99.44773832 177.2248626 99.39860714 171.33151966 99.34332275 165.43780518 C99.29220476 159.42541825 99.2693445 153.41293215 99.24414062 147.40039062 C99.19049238 135.59999014 99.10513745 123.80004615 99 112 C96.00360763 112 94.18000635 113.48163015 91.59375 114.97265625 Z M-128.4765625 242.0078125 C-129.60964844 242.6575 -130.74273437 243.3071875 -131.91015625 243.9765625 C-133.14850967 244.69258353 -134.38678902 245.40873269 -135.625 246.125 C-136.90217067 246.85967597 -138.17951646 247.59404759 -139.45703125 248.328125 C-148.28578792 253.40726167 -157.08528634 258.53656469 -165.87475586 263.68334961 C-175.15346093 269.1096695 -184.48556762 274.44096921 -193.82617188 279.75976562 C-194.94958984 280.39978516 -196.07300781 281.03980469 -197.23046875 281.69921875 C-198.22457764 282.26471436 -199.21868652 282.83020996 -200.24291992 283.4128418 C-202.84745622 284.91218568 -205.42841026 286.4449556 -208 288 C-206.74327861 291.77016416 -205.70437669 292.00711403 -202.27734375 293.86328125 C-201.27662842 294.41290527 -200.27591309 294.9625293 -199.24487305 295.52880859 C-198.15343994 296.11742676 -197.06200684 296.70604492 -195.9375 297.3125 C-193.62915499 298.58016929 -191.32183508 299.84955933 -189.015625 301.12109375 C-188.42641769 301.44482971 -187.83721039 301.76856567 -187.23014832 302.10211182 C-181.49105384 305.26182084 -175.83436323 308.55412934 -170.1875 311.875 C-161.1376426 317.18466416 -152.05094679 322.42554412 -142.9375 327.625 C-142.33795502 327.96706482 -141.73841003 328.30912964 -141.12069702 328.66156006 C-138.34801492 330.24312305 -135.57396434 331.82163898 -132.79248047 333.38769531 C-131.11956374 334.35359338 -129.46452278 335.35325185 -127.85205078 336.41699219 C-125.09339419 338.2229052 -123.55941431 339.07348239 -120.234375 338.63671875 C-115.45439904 336.21786618 -110.84973529 333.5567577 -106.25 330.8125 C-104.08632451 329.53580222 -101.92224834 328.25978329 -99.7578125 326.984375 C-98.64180664 326.32501953 -97.52580078 325.66566406 -96.37597656 324.98632812 C-90.97873641 321.81074627 -85.5523448 318.68626134 -80.125 315.5625 C-77.96743742 314.31902863 -75.80988542 313.07553889 -73.65234375 311.83203125 C-71.43489986 310.55468051 -69.21745183 309.27733696 -67 308 C-62.8036869 305.58216338 -58.60779716 303.16359338 -54.41229248 300.74435425 C-52.72901778 299.77393527 -51.04542113 298.80407481 -49.36181641 297.83422852 C-48.33878418 297.24440186 -47.31575195 296.6545752 -46.26171875 296.046875 C-44.91533325 295.27102051 -44.91533325 295.27102051 -43.54174805 294.47949219 C-42.70297119 293.99125977 -41.86419434 293.50302734 -41 293 C-40.06647705 292.4834082 -39.1329541 291.96681641 -38.17114258 291.43457031 C-37.45466553 290.96116211 -36.73818848 290.48775391 -36 290 C-36 289.34 -36 288.68 -36 288 C-37.00244751 287.4423999 -37.00244751 287.4423999 -38.02514648 286.87353516 C-60.70066756 274.24900639 -60.70066756 274.24900639 -71.39428711 267.90087891 C-79.01251567 263.38265739 -86.69454773 258.97575192 -94.37280273 254.56054688 C-99.3897016 251.67242125 -104.39956577 248.77551001 -109.375 245.81640625 C-110.16648437 245.34589844 -110.95796875 244.87539062 -111.7734375 244.390625 C-113.21849285 243.52866216 -114.66134401 242.66298921 -116.1015625 241.79296875 C-121.718899 238.44106014 -122.88374807 238.78884303 -128.4765625 242.0078125 Z M108.03125 241.75390625 C106.99871094 242.35332031 105.96617187 242.95273438 104.90234375 243.5703125 C103.21818359 244.55644531 103.21818359 244.55644531 101.5 245.5625 C100.32448406 246.24654988 99.14869853 246.93013667 97.97265625 247.61328125 C95.52629074 249.03482132 93.08110537 250.45836082 90.63671875 251.88330078 C85.10195016 255.10757149 79.55019645 258.30238739 74 261.5 C71.85798857 262.73553087 69.71606204 263.97120892 67.57421875 265.20703125 C66.50478027 265.82400879 65.4353418 266.44098633 64.33349609 267.07666016 C61.43496482 268.74903671 58.53655044 270.42161547 55.63821411 272.09432983 C53.84933082 273.12673478 52.06041283 274.15907956 50.27148438 275.19140625 C48.02662364 276.48685948 45.7818281 277.7824257 43.53710938 279.078125 C38.36428226 282.06307914 33.18854991 285.04245317 28 288 C28 288.66 28 289.32 28 290 C28.72251953 290.41137207 29.44503906 290.82274414 30.18945312 291.24658203 C43.8363963 299.02051192 57.4630181 306.82449861 71.01928711 314.75585938 C78.68495117 319.23907839 86.36926159 323.68933871 94.0625 328.125 C95.69566162 329.06678101 95.69566162 329.06678101 97.36181641 330.02758789 C99.36957913 331.18462773 101.38043995 332.33631587 103.39501953 333.48144531 C104.983721 334.40756744 106.55382145 335.36800404 108.08544922 336.38574219 C110.02878263 337.72014668 110.02878263 337.72014668 113 339 C117.16753268 337.94326708 120.66428276 336.21425842 124.359375 334.05078125 C125.37902344 333.4578125 126.39867187 332.86484375 127.44921875 332.25390625 C128.53847656 331.61324219 129.62773437 330.97257812 130.75 330.3125 C131.90720972 329.63743361 133.06476857 328.96296538 134.22265625 328.2890625 C136.62570582 326.88984195 139.0272392 325.48807065 141.42773438 324.08447266 C146.93786865 320.86550604 152.47012068 317.68487977 158 314.5 C160.13680254 313.26707228 162.27352074 312.0339984 164.41015625 310.80078125 C168.42719631 308.48309509 172.44537049 306.16739874 176.4649353 303.85409546 C178.87543748 302.46671905 181.28551376 301.07860376 183.69555664 299.69042969 C185.40143968 298.70826185 187.10793986 297.72716615 188.81445312 296.74609375 C189.84376953 296.153125 190.87308594 295.56015625 191.93359375 294.94921875 C192.84165771 294.42674561 193.74972168 293.90427246 194.68530273 293.3659668 C196.49126201 292.30022034 198.25521129 291.16319248 200 290 C200 289.34 200 288.68 200 288 C199.2879541 287.59386475 198.5759082 287.18772949 197.84228516 286.76928711 C181.64031668 277.52564045 165.46086908 268.24445942 149.31005859 258.91162109 C145.79766647 256.88314858 142.28380929 254.85723381 138.76953125 252.83203125 C137.57242346 252.14201701 136.37532054 251.45199432 135.17822266 250.76196289 C132.90597028 249.45219245 130.6334741 248.14284828 128.36083984 246.83374023 C127.33812988 246.24407471 126.31541992 245.65440918 125.26171875 245.046875 C124.36412842 244.52963867 123.46653809 244.01240234 122.54174805 243.47949219 C120.7760795 242.45173775 119.02845695 241.39259918 117.29614258 240.30957031 C113.32890166 238.04691425 111.76789771 239.57342596 108.03125 241.75390625 Z M-225 316 C-225.20855565 328.93444359 -225.36845792 341.86848713 -225.46630955 354.80426979 C-225.51327502 360.81103536 -225.57697158 366.81665051 -225.67895508 372.82275391 C-225.77676675 378.61946275 -225.83056246 384.41506548 -225.85389519 390.21253586 C-225.87052154 392.42387689 -225.90299085 394.6351575 -225.95157051 396.84602737 C-226.01695589 399.9450668 -226.02590133 403.03954163 -226.02172852 406.13916016 C-226.054086 407.05266235 -226.08644348 407.96616455 -226.11978149 408.90734863 C-226.08117648 411.55860343 -225.94769888 413.51968214 -225 416 C-222.28113343 418.59210423 -219.32862194 420.2957867 -216 422 C-215.0917749 422.54527344 -214.1835498 423.09054687 -213.24780273 423.65234375 C-212.48411377 424.07644531 -211.7204248 424.50054687 -210.93359375 424.9375 C-210.04889404 425.43233887 -209.16419434 425.92717773 -208.25268555 426.43701172 C-207.32367432 426.95279785 -206.39466309 427.46858398 -205.4375 428 C-197.31053373 432.55257265 -189.22592871 437.16782401 -181.1875 441.875 C-179.20577405 443.03393091 -177.22400255 444.19278396 -175.2421875 445.3515625 C-174.23639648 445.93969727 -173.23060547 446.52783203 -172.19433594 447.13378906 C-166.98280923 450.17849329 -161.76818144 453.21771607 -156.54605103 456.24420166 C-154.85051275 457.22794518 -153.15704283 458.21525089 -151.46362305 459.20263672 C-150.43019775 459.80092285 -149.39677246 460.39920898 -148.33203125 461.015625 C-147.42171143 461.54446289 -146.5113916 462.07330078 -145.57348633 462.61816406 C-143.09619526 463.94834787 -140.61600654 464.97823203 -138 466 C-137.4886116 453.18803916 -137.0985892 440.37852848 -136.86013222 427.55841541 C-136.74562623 421.60370128 -136.59063003 415.65599841 -136.34033203 409.70532227 C-134.07034043 385.42658536 -134.07034043 385.42658536 -140.02490234 362.65246582 C-145.00788106 357.77247509 -150.66382255 355.55895176 -157.31732178 353.7729187 C-161.00121939 352.7115341 -163.70044868 351.04341132 -166.921875 348.9765625 C-168.86388926 347.85816892 -170.80658683 346.74096095 -172.75 345.625 C-174.93490999 344.36721209 -177.11980536 343.10939879 -179.3046875 341.8515625 C-180.40006836 341.2215332 -181.49544922 340.59150391 -182.62402344 339.94238281 C-188.37679714 336.63249942 -194.12585283 333.31617715 -199.875 330 C-200.91366211 329.4013916 -201.95232422 328.8027832 -203.02246094 328.18603516 C-204.0230957 327.60901855 -205.02373047 327.03200195 -206.0546875 326.4375 C-207.0250293 325.87804687 -207.99537109 325.31859375 -208.99511719 324.7421875 C-213.2442586 322.2785969 -217.47485922 319.78355988 -221.70361328 317.28515625 C-223.70684931 315.91860566 -223.70684931 315.91860566 -225 316 Z M11 316 C10.79144435 328.93444359 10.63154208 341.86848713 10.53369045 354.80426979 C10.48672498 360.81103536 10.42302842 366.81665051 10.32104492 372.82275391 C10.22323325 378.61946275 10.16943754 384.41506548 10.14610481 390.21253586 C10.12947846 392.42387689 10.09700915 394.6351575 10.04842949 396.84602737 C9.98304411 399.9450668 9.97409867 403.03954163 9.97827148 406.13916016 C9.945914 407.05266235 9.91355652 407.96616455 9.88021851 408.90734863 C9.91878024 411.55563093 10.05731609 413.52121184 11 416 C13.70965892 418.60967914 16.66795958 420.29346915 20 422 C21.32597763 422.75734546 22.65052456 423.51721035 23.97265625 424.28125 C25.3342937 425.02385536 26.6976542 425.76330793 28.0625 426.5 C35.27501486 430.45178082 42.40387825 434.53050419 49.5 438.6875 C58.25762515 443.8147429 67.0253509 448.92355501 75.8125 454 C76.86695313 454.61061279 77.92140625 455.22122559 79.0078125 455.8503418 C80.52955078 456.72879761 80.52955078 456.72879761 82.08203125 457.625 C82.96093018 458.13289062 83.8398291 458.64078125 84.74536133 459.1640625 C89.46793826 461.82806209 94.23992531 464.40359563 99 467 C99 433.67 99 400.34 99 366 C91.41 361.71 83.82 357.42 76 353 C72.05476563 350.71949064 68.11501258 348.4350827 64.1875 346.125 C52.42956654 339.23958239 40.63387492 332.42091029 28.82373047 325.62548828 C26.30963251 324.17824081 23.7971489 322.72824079 21.28515625 321.27734375 C20.00270492 320.5388875 18.72016332 319.80058797 17.4375 319.0625 C16.38433594 318.45535156 15.33117187 317.84820312 14.24609375 317.22265625 C12.27983406 315.9203162 12.27983406 315.9203162 11 316 Z M-24.28515625 318.3515625 C-25.19563721 318.8657373 -26.10611816 319.37991211 -27.04418945 319.90966797 C-28.04023193 320.47572754 -29.03627441 321.04178711 -30.0625 321.625 C-31.09528076 322.21039551 -32.12806152 322.79579102 -33.19213867 323.39892578 C-41.4236388 328.07686198 -49.609749 332.83011341 -57.78100586 337.61230469 C-65.3804627 342.05974559 -72.99734136 346.47610557 -80.625 350.875 C-81.65471924 351.46909668 -82.68443848 352.06319336 -83.74536133 352.67529297 C-91.4856907 357.13683198 -99.24290167 361.56737238 -107 366 C-107 399.33 -107 432.66 -107 467 C-95.47040246 460.90876431 -95.47040246 460.90876431 -84.1875 454.4375 C-77.01185307 450.171746 -69.79590804 445.97953119 -62.5625 441.8125 C-61.47203369 441.1836792 -60.38156738 440.5548584 -59.25805664 439.90698242 C-54.01521539 436.88486302 -48.77008363 433.86685235 -43.52006531 430.85722351 C-41.12936038 429.48629309 -38.73977386 428.11342029 -36.35031128 426.74032593 C-34.65986458 425.77001221 -32.96776618 424.80257782 -31.27563477 423.83520508 C-30.24881592 423.24505615 -29.22199707 422.65490723 -28.1640625 422.046875 C-27.26123535 421.52963867 -26.3584082 421.01240234 -25.42822266 420.47949219 C-24.22625244 419.74714355 -24.22625244 419.74714355 -23 419 C-22.29928375 418.67084091 -21.5985675 418.34168182 -20.87661743 418.00254822 C-17.76351994 414.6805457 -18.47775614 410.85931023 -18.54589844 406.47973633 C-18.54531433 405.50394119 -18.54473022 404.52814606 -18.54412842 403.52278137 C-18.54691878 400.2921715 -18.5780564 397.06248026 -18.609375 393.83203125 C-18.61683398 391.59429936 -18.62252853 389.35656094 -18.62652588 387.11882019 C-18.64180907 381.22496553 -18.6811144 375.33150425 -18.7253418 369.43780518 C-18.7662364 363.4253878 -18.78452449 357.41290695 -18.8046875 351.40039062 C-18.84760575 339.60008744 -18.91588982 327.80007641 -19 316 C-20.92344732 316 -22.66015813 317.43269668 -24.28515625 318.3515625 Z M210.62109375 319.0078125 C209.48462402 319.65758057 208.3481543 320.30734863 207.17724609 320.97680664 C205.93059798 321.69275604 204.68401768 322.40882353 203.4375 323.125 C202.15710493 323.85871436 200.87666829 324.59235618 199.59619141 325.32592773 C190.69901644 330.42799305 181.82969917 335.57700605 172.97827148 340.75805664 C167.66500912 343.86703613 162.34349576 346.96090296 157.0078125 350.03125 C156.12825394 350.53754189 156.12825394 350.53754189 155.23092651 351.05406189 C152.39718764 352.6847291 149.56234693 354.31344068 146.72607422 355.93969727 C145.70271973 356.52807373 144.67936523 357.1164502 143.625 357.72265625 C142.73039062 358.23578369 141.83578125 358.74891113 140.9140625 359.27758789 C139.47160156 360.13018188 139.47160156 360.13018188 138 361 C137.00868954 361.45504127 137.00868954 361.45504127 135.9973526 361.91927528 C131.68804925 364.07954241 131.68804925 364.07954241 129.27345276 368.05207348 C129.01278006 370.64850252 129.00998997 373.13886001 129.09179688 375.74731445 C129.09062866 376.72340164 129.08946045 377.69948883 129.08825684 378.70515442 C129.09382308 381.92598634 129.15600771 385.14309789 129.21875 388.36328125 C129.23367368 390.59813921 129.2450601 392.83302337 129.25305176 395.06791687 C129.28357519 400.94585628 129.3621425 406.8222103 129.45068359 412.69952393 C129.53256915 418.69855297 129.56906918 424.69783862 129.609375 430.69726562 C129.69513446 442.46553975 129.83164601 454.23263797 130 466 C133.76716237 464.53028926 137.19053264 462.8497922 140.69921875 460.83203125 C141.81264648 460.19378418 142.92607422 459.55553711 144.07324219 458.89794922 C145.27804914 458.20289367 146.48280029 457.5077414 147.6875 456.8125 C148.94288672 456.09105251 150.19842292 455.36986506 151.45410156 454.64892578 C154.68120292 452.7949706 157.90596414 450.93698535 161.13006592 449.07781982 C162.90920925 448.05233129 164.68904049 447.02805128 166.46923828 446.00439453 C173.98654893 441.68174719 181.49564974 437.34510302 189 433 C190.12180664 432.3512793 191.24361328 431.70255859 192.39941406 431.03417969 C195.72633027 429.10907002 199.05101678 427.1801686 202.375 425.25 C203.38594727 424.66524902 204.39689453 424.08049805 205.43847656 423.47802734 C206.84178223 422.66132568 206.84178223 422.66132568 208.2734375 421.828125 C209.09247559 421.3527832 209.91151367 420.87744141 210.75537109 420.38769531 C211.49609863 419.92975586 212.23682617 419.47181641 213 419 C213.69692963 418.67273422 214.39385925 418.34546844 215.11190796 418.00828552 C218.23778966 414.68341426 217.52240428 410.869621 217.45410156 406.47973633 C217.45468567 405.50394119 217.45526978 404.52814606 217.45587158 403.52278137 C217.45308122 400.2921715 217.4219436 397.06248026 217.390625 393.83203125 C217.38316602 391.59429936 217.37747147 389.35656094 217.37347412 387.11882019 C217.35819093 381.22496553 217.3188856 375.33150425 217.2746582 369.43780518 C217.2337636 363.4253878 217.21547551 357.41290695 217.1953125 351.40039062 C217.15239425 339.60008744 217.08411018 327.80007641 217 316 C214.822217 316 212.41593044 317.98011571 210.62109375 319.0078125 Z " fill="#000000" transform="translate(260,1)"/>
</svg>
