
<svg version="1.1" xmlns="http://www.w3.org/2000/svg" width="512" height="512">
<path d="M0 0 C111.21 0 222.42 0 337 0 C356.54425872 40.17430959 356.54425872 40.17430959 364.7421875 58.02734375 C367.13628216 63.20107365 369.61373081 68.32788741 372.1328125 73.44140625 C372.48146866 74.15143799 372.83012482 74.86146973 373.18934631 75.59301758 C374.89050761 79.05629456 376.60106501 82.51428719 378.32885742 85.96435547 C378.94491832 87.2143115 379.56058018 88.46446431 380.17578125 89.71484375 C380.72145752 90.80917725 381.26713379 91.90351074 381.8293457 93.03100586 C383.00272914 96.00692159 383.40142553 97.84623284 383 101 C381.19921875 103.62109375 381.19921875 103.62109375 378.6875 106.4375 C377.75845969 107.50220179 376.83144941 108.56867762 375.90625 109.63671875 C375.42414063 110.1889209 374.94203125 110.74112305 374.4453125 111.31005859 C372.10057162 114.05166272 369.89729521 116.89936822 367.6875 119.75 C363.68571805 124.88413274 359.61645539 129.95738764 355.5 135 C349.57520406 142.26321563 343.76729921 149.61143952 338 157 C331.69256755 165.08053205 325.3175703 173.0964614 318.83642578 181.03857422 C314.88834926 185.88452542 311.01215189 190.78152094 307.16625977 195.70874023 C303.64624854 200.20663846 300.05143112 204.63985702 296.4375 209.0625 C292.55018227 213.82173946 288.72660109 218.61374347 285 223.5 C280.73854125 229.08755288 276.33451114 234.54436426 271.88891602 239.98608398 C267.90033295 244.87442671 263.97971852 249.81069623 260.09399414 254.78100586 C256.25899454 259.68294249 252.37284837 264.54250371 248.47802734 269.39697266 C245.14512078 273.55584639 241.84508715 277.73884201 238.5625 281.9375 C234.59800899 287.00515372 230.56734931 292.01458331 226.5 297 C220.57543572 304.26340947 214.76730373 311.61143372 209 319 C202.69835026 327.07312375 196.33004667 335.0824406 189.85400391 343.01660156 C185.73852998 348.0672429 181.69135623 353.16754982 177.68945312 358.30859375 C174.86184173 361.93464144 171.95878524 365.48115898 169 369 C165.9881398 367.67789709 164.19459869 366.36610497 162.15234375 363.796875 C161.63526855 363.15347168 161.11819336 362.51006836 160.58544922 361.84716797 C160.04162598 361.15510254 159.49780273 360.46303711 158.9375 359.75 C158.36531738 359.03344238 157.79313477 358.31688477 157.20361328 357.57861328 C155.46111279 355.3919176 153.72932188 353.19712626 152 351 C151.03001059 349.77338794 150.05996255 348.54682224 149.08984375 347.3203125 C145.93466649 343.32139374 142.80026431 339.30634154 139.66601562 335.29101562 C133.80169245 327.78296975 127.86111529 320.34549047 121.83862305 312.96362305 C117.86906645 308.09037015 113.96497145 303.17031232 110.09375 298.21875 C106.75845272 293.95537 103.38742566 289.72205605 100 285.5 C96.15735633 280.71056443 92.34450173 275.89994408 88.5625 271.0625 C84.59800899 265.99484628 80.56734931 260.98541669 76.5 256 C70.11856278 248.17647251 63.87801098 240.249282 57.66601562 232.29101562 C51.80106395 224.78216508 45.86044974 217.34337472 39.83642578 209.96142578 C35.88834926 205.11547458 32.01215189 200.21847906 28.16625977 195.29125977 C24.64624854 190.79336154 21.05143112 186.36014298 17.4375 181.9375 C12.71034725 176.1500513 8.12160224 170.2818091 3.58984375 164.33984375 C0.11534274 159.82339945 -3.50629979 155.42642428 -7.11108398 151.01391602 C-11.09966705 146.12557329 -15.02028148 141.18930377 -18.90600586 136.21899414 C-22.24146556 131.95557463 -25.61354871 127.72299511 -29 123.5 C-29.99613448 122.25263669 -30.99222831 121.00524092 -31.98828125 119.7578125 C-34.03354541 117.19872666 -36.09597328 114.65466362 -38.16796875 112.1171875 C-39.17469832 110.86996853 -40.18121675 109.6225791 -41.1875 108.375 C-41.65736328 107.80716797 -42.12722656 107.23933594 -42.61132812 106.65429688 C-45.18908789 103.43691361 -46.5736114 101.09956087 -47 97 C-46.40527344 94.93994141 -46.40527344 94.93994141 -45.359375 92.8515625 C-44.7574231 91.62155518 -44.7574231 91.62155518 -44.14331055 90.36669922 C-43.68351807 89.46193848 -43.22372559 88.55717773 -42.75 87.625 C-41.73045409 85.5572989 -40.71092408 83.48958995 -39.69140625 81.421875 C-39.11148926 80.25849609 -38.53157227 79.09511719 -37.93408203 77.89648438 C-35.77233051 73.55308319 -33.64877637 69.19132908 -31.52734375 64.828125 C-30.93975784 63.6197271 -30.93975784 63.6197271 -30.34030151 62.38691711 C-29.5322684 60.72498436 -28.72429591 59.06302212 -27.91638184 57.40103149 C-26.27625679 54.02966787 -24.63208296 50.66028578 -22.98800659 47.29084778 C-17.72047438 36.49406502 -12.48739571 25.68097053 -7.27612305 14.85693359 C-6.75187744 13.76848145 -6.22763184 12.6800293 -5.6875 11.55859375 C-5.23761719 10.62329834 -4.78773437 9.68800293 -4.32421875 8.72436523 C-2.90531391 5.80519873 -1.45153877 2.90307755 0 0 Z " fill="#FF5271" transform="translate(84,143)"/>
<path d="M0 0 C66.99 0 133.98 0 203 0 C198.95444337 11.55873323 194.92243663 23.03397432 190.5 34.4375 C189.36717361 37.37660017 188.23789285 40.3170556 187.109375 43.2578125 C186.79889221 44.06662369 186.48840942 44.87543488 186.16851807 45.70875549 C181.56301878 57.72559628 177.03790382 69.7730425 172.50189972 81.81624222 C171.24415695 85.1554891 169.9860614 88.49460308 168.72802734 91.83374023 C167.23141839 95.80621202 165.73486606 99.77870512 164.23849487 103.75126648 C159.874295 115.33681027 155.50158459 126.91912943 151.125 138.5 C150.44042887 140.31160451 149.75585855 142.12320933 149.07128906 143.93481445 C147.72371205 147.50084375 146.37603911 151.06683678 145.02832031 154.6328125 C142.94289744 160.15086717 140.85809251 165.6691552 138.7734375 171.1875 C138.42083359 172.12088699 138.06822968 173.05427399 137.7049408 174.01594543 C136.2855886 177.7731876 134.86625904 181.53043832 133.44692993 185.28768921 C129.80876536 194.91859792 126.17040885 204.54943387 122.53091431 214.17984009 C120.9941406 218.24631979 119.45751428 222.31285518 117.92089844 226.37939453 C117.1955485 228.2988558 116.47012812 230.21829046 115.74462891 232.13769531 C113.79408092 237.29815685 111.84534531 242.45929584 109.89849854 247.62115479 C109.00683163 249.98191272 108.11181564 252.34138007 107.21630859 254.70068359 C106.66887484 256.14808533 106.12150777 257.59551228 105.57421875 259.04296875 C105.32638138 259.69324539 105.07854401 260.34352203 104.82319641 261.01350403 C103.70421477 263.98005052 102.67203545 266.89818628 102 270 C101.34 270 100.68 270 100 270 C99.70319336 269.06317383 99.40638672 268.12634766 99.10058594 267.16113281 C94.52736167 252.9823345 89.21081809 239.08307857 83.92376709 225.15975952 C81.01011586 217.48635657 78.11096849 209.80746456 75.2109375 202.12890625 C74.91199207 201.33767176 74.61304665 200.54643726 74.30504227 199.73122597 C68.0347544 183.13249827 61.84771922 166.50335918 55.68214417 149.8655014 C53.25549541 143.3174216 50.82733921 136.76990066 48.3984375 130.22265625 C48.13306183 129.50729202 47.86768616 128.7919278 47.5942688 128.05488586 C41.5994318 111.89786891 35.55542731 95.75938969 29.5 79.625 C29.00168576 78.29705918 28.50337438 76.9691173 28.00506592 75.64117432 C23.28835298 63.07243618 18.56645211 50.5056503 13.8416748 37.93994141 C12.12710517 33.37919553 10.41367766 28.81802107 8.70043945 24.2567749 C7.52750834 21.13569754 6.35267724 18.01534 5.17773438 14.89501953 C4.48297999 13.04593335 3.78831281 11.1968144 3.09375 9.34765625 C2.77631836 8.50633652 2.45888672 7.66501678 2.13183594 6.79820251 C0 1.11384861 0 1.11384861 0 0 Z " fill="#FF7A92" transform="translate(151,242)"/>
<path d="M0 0 C37.62 0 75.24 0 114 0 C119.62202223 13.49285336 119.62202223 13.49285336 121.8203125 19.390625 C122.0720372 20.06376236 122.3237619 20.73689972 122.58311462 21.43043518 C123.13689768 22.91212527 123.68965278 24.3941999 124.2414856 25.87661743 C125.16866958 28.36730949 126.09855942 30.856978 127.02905273 33.34643555 C128.10238454 36.21806175 129.17554757 39.08974995 130.24797058 41.9617157 C133.56127129 50.83332601 136.88694448 59.70026518 140.21484375 68.56640625 C141.33774886 71.55826035 142.46062658 74.55012473 143.58349609 77.54199219 C143.86759968 78.2989784 144.15170326 79.05596462 144.44441605 79.83588982 C154.0934965 105.54659053 163.7196486 131.26561183 173.30368042 157.00064087 C178.92755981 172.1006146 184.56771944 187.19434905 190.2265625 202.28125 C190.53439415 203.10196487 190.8422258 203.92267975 191.15938568 204.76826477 C194.20489852 212.88745302 197.2516122 221.00618978 200.30010414 229.12425995 C201.42679165 232.124841 202.55307332 235.1255743 203.67930222 238.12632751 C204.4497193 240.17849741 205.22077024 242.23042834 205.99185181 244.28234863 C206.9126641 246.73292348 207.82847673 249.1851703 208.74151611 251.63867188 C209.56885054 253.84842799 210.40991479 256.05310093 211.26580811 258.25195312 C211.64263733 259.23615234 212.01946655 260.22035156 212.40771484 261.234375 C212.74072601 262.08741211 213.07373718 262.94044922 213.4168396 263.81933594 C214 266 214 266 213 269 C204.5181149 258.77848008 196.1590552 248.480713 188 238 C181.69606378 229.91808984 175.31810981 221.90563614 168.83862305 213.96362305 C164.86906645 209.09037015 160.96497145 204.17031232 157.09375 199.21875 C153.75845272 194.95537 150.38742566 190.72205605 147 186.5 C143.15735633 181.71056443 139.34450173 176.89994408 135.5625 172.0625 C131.59800899 166.99484628 127.56734931 161.98541669 123.5 157 C117.11856278 149.17647251 110.87801098 141.249282 104.66601562 133.29101562 C98.80106395 125.78216508 92.86044974 118.34337472 86.83642578 110.96142578 C82.88834926 106.11547458 79.01215189 101.21847906 75.16625977 96.29125977 C71.64624854 91.79336154 68.05143112 87.36014298 64.4375 82.9375 C59.71034725 77.1500513 55.12160224 71.2818091 50.58984375 65.33984375 C47.11534274 60.82339945 43.49370021 56.42642428 39.88891602 52.01391602 C35.90033295 47.12557329 31.97971852 42.18930377 28.09399414 37.21899414 C24.75853972 32.95558138 21.38698011 28.72256585 18 24.5 C16.50518047 22.63257364 15.01095715 20.76467256 13.51708984 18.89648438 C12.48435581 17.60548374 11.45079462 16.31514445 10.41650391 15.02539062 C8.87751031 13.10366426 7.34434824 11.17742433 5.8125 9.25 C5.10770508 8.37311523 5.10770508 8.37311523 4.38867188 7.47851562 C2.41535127 4.98605537 1.01446218 3.04338653 0 0 Z " fill="#FF395C" transform="translate(37,242)"/>
<path d="M0 0 C1.2485686 0.00138269 1.2485686 0.00138269 2.5223608 0.00279331 C3.47453487 0.00141865 4.42670895 0.00004398 5.40773678 -0.00137234 C6.46077496 0.00222294 7.51381313 0.00581821 8.59876156 0.00952244 C10.25221081 0.0093034 10.25221081 0.0093034 11.93906307 0.00907993 C15.60226021 0.00977961 19.26540723 0.01757459 22.92859554 0.02539158 C25.46065398 0.02725556 27.99271277 0.02867956 30.52477169 0.0296793 C36.52067179 0.03311437 42.51655019 0.04100514 48.51244158 0.05102879 C55.33699987 0.06219105 62.16155901 0.06770066 68.98612416 0.07272422 C83.02815593 0.08318779 97.07017162 0.10078653 111.11218929 0.12304783 C109.29785961 3.93482814 106.92556691 7.0888516 104.29968929 10.37304783 C103.81757992 10.98148533 103.33547054 11.58992283 102.83875179 12.21679783 C98.58705007 17.56676522 94.27100257 22.86448754 89.95081234 28.15918064 C86.00174362 33.00573843 82.12501432 37.90370637 78.27844906 42.83178806 C74.75843783 47.32968629 71.16362041 51.76290485 67.54968929 56.18554783 C63.66237156 60.94478729 59.83879038 65.7367913 56.11218929 70.62304783 C51.85073055 76.21060071 47.44670043 81.66741209 43.00110531 87.10913181 C39.01252225 91.99747454 35.09190781 96.93374406 31.20618343 101.90405369 C27.37118384 106.80599032 23.48503767 111.66555154 19.59021664 116.52002048 C16.25731007 120.67889422 12.95727644 124.86188984 9.67468929 129.06054783 C5.71019829 134.12820155 1.6795386 139.13763114 -2.38781071 144.12304783 C-8.31237499 151.3864573 -14.12050697 158.73448155 -19.88781071 166.12304783 C-26.19524315 174.20357988 -32.57024041 182.21950923 -39.05138493 190.16162205 C-42.99946145 195.00757325 -46.87565882 199.90456877 -50.72155094 204.83178806 C-54.24156217 209.32968629 -57.83637959 213.76290485 -61.45031071 218.18554783 C-65.33762844 222.94478729 -69.16120962 227.7367913 -72.88781071 232.62304783 C-77.14072702 238.19940001 -81.53493159 243.64608659 -85.9725275 249.07617283 C-91.36849814 255.68774131 -96.64059365 262.3931502 -101.88781071 269.12304783 C-103.11392593 265.44470217 -102.53243146 264.47321034 -101.18810368 260.90600681 C-100.58945248 259.29705288 -100.58945248 259.29705288 -99.97870731 257.65559483 C-99.53363331 256.48856525 -99.0885593 255.32153568 -98.62999821 254.11914158 C-98.17586048 252.90687397 -97.72172276 251.69460636 -97.25382328 250.44560337 C-96.02334872 247.16187936 -94.78137519 243.88261592 -93.53709126 240.60410404 C-92.24113037 237.18367854 -90.95566503 233.7593118 -89.66881657 230.33545017 C-84.16316803 215.70010217 -78.61687278 201.07975388 -73.00353336 186.48535252 C-67.48095038 172.11926438 -62.06368619 157.71335629 -56.63781071 143.31054783 C-56.13308404 141.97088584 -55.62835382 140.6312252 -55.12362003 139.2915659 C-53.12443246 133.98522932 -51.12536055 128.67884919 -49.12653446 123.37237644 C-44.76224897 111.7866379 -40.38954208 100.20409006 -36.01281071 88.62304783 C-35.67617405 87.73225529 -35.33953739 86.84146275 -34.99269962 85.92367649 C-33.64919761 82.36859894 -32.30567529 78.81352907 -30.96204472 75.2585001 C-28.4216664 68.5367607 -25.88304021 61.81436071 -23.34484196 55.09179783 C-22.20478765 52.07266541 -21.06470632 49.05354319 -19.92461491 46.03442478 C-19.2101971 44.14237384 -18.49587685 42.25028605 -17.78167057 40.35815525 C-15.8221633 35.16697883 -13.86008314 29.97678729 -11.89531803 24.78759861 C-10.81099899 21.91990416 -9.73059149 19.0507492 -8.65001774 16.18164158 C-7.91821574 14.24539392 -7.18628584 12.3091946 -6.45421696 10.37304783 C-6.11164356 9.46079441 -5.76907017 8.54854099 -5.41611576 7.60864353 C-5.09941425 6.7729282 -4.78271275 5.93721287 -4.45641422 5.07617283 C-4.17701496 4.33528416 -3.8976157 3.59439548 -3.60974979 2.83105564 C-2.48148765 0.16174379 -2.48148765 0.16174379 0 0 Z " fill="#FF395C" transform="translate(355.8878107070923,241.87695217132568)"/>
<path d="M0 0 C34.32 0 68.64 0 104 0 C123.43430819 39.94830018 123.43430819 39.94830018 131.7421875 58.01953125 C134.14638654 63.21359352 136.62111731 68.3691322 139.1328125 73.51171875 C139.48146866 74.22648376 139.83012482 74.94124878 140.18934631 75.67767334 C141.89410535 79.16937892 143.6062241 82.65721573 145.32885742 86.14013672 C145.94467246 87.39672475 146.56032239 88.65339372 147.17578125 89.91015625 C147.72145752 91.01496338 148.26713379 92.11977051 148.8293457 93.25805664 C150 96 150 96 150 99 C112.71 99 75.42 99 37 99 C27.81593255 76.03983137 27.81593255 76.03983137 25.140625 68.765625 C24.82893875 67.92522171 24.5172525 67.08481842 24.19612122 66.21894836 C23.21174441 63.56349037 22.23080203 60.90678013 21.25 58.25 C19.85907383 54.49311852 18.46658187 50.73681786 17.07421875 46.98046875 C16.73092026 46.05350693 16.38762177 45.1265451 16.03392029 44.17149353 C13.81636883 38.1875227 11.58207699 32.21010617 9.33203125 26.23828125 C8.9094957 25.11614731 8.9094957 25.11614731 8.47842407 23.97134399 C7.41708556 21.1537276 6.35541333 18.33624817 5.28942871 15.52038574 C4.577836 13.64058627 3.86892472 11.7597724 3.16015625 9.87890625 C2.76449463 8.8329126 2.36883301 7.78691895 1.96118164 6.70922852 C1 4 1 4 0 0 Z " fill="#FF7A92" transform="translate(317,143)"/>
<path d="M0 0 C29.04 0 58.08 0 88 0 C84.55229856 19.53697483 84.55229856 19.53697483 83.16796875 25.98828125 C83.01082397 26.73216095 82.8536792 27.47604065 82.69177246 28.24246216 C82.19307545 30.5997296 81.69037148 32.95611997 81.1875 35.3125 C80.83480986 36.97594357 80.4823557 38.63943719 80.13012695 40.30297852 C77.75811822 51.49320678 75.36135272 62.67821845 72.94921875 73.85986328 C71.39288046 81.09270638 69.9139288 88.33522606 68.54296875 95.60546875 C68 98 68 98 67 99 C65.51983606 99.09568576 64.03511727 99.12188268 62.55186462 99.12025452 C61.11098228 99.12231651 61.11098228 99.12231651 59.64099121 99.12442017 C58.57860229 99.12082489 57.51621338 99.11722961 56.42163086 99.11352539 C54.75355125 99.11374443 54.75355125 99.11374443 53.05177307 99.1139679 C49.35611049 99.11326821 45.66049759 99.1054732 41.96484375 99.09765625 C39.41036507 99.09579227 36.85588603 99.09436827 34.30140686 99.09336853 C28.2523829 99.08993344 22.20338045 99.08204264 16.15436512 99.07201904 C9.26934846 99.06085683 2.38433096 99.05534718 -4.50069249 99.05032361 C-18.6671383 99.03986 -32.83356817 99.02226123 -47 99 C-46.53028127 97.56276299 -46.05813019 96.12632078 -45.58496094 94.69021606 C-45.32229431 93.89021242 -45.05962769 93.09020878 -44.78900146 92.2659626 C-43.81528666 89.46951491 -42.5996415 86.87654744 -41.25 84.2421875 C-40.73034668 83.21778564 -40.21069336 82.19338379 -39.67529297 81.13793945 C-39.12244629 80.06116943 -38.56959961 78.98439941 -38 77.875 C-36.81350791 75.53336021 -35.62863752 73.19089808 -34.4453125 70.84765625 C-33.85782227 69.68508301 -33.27033203 68.52250977 -32.66503906 67.32470703 C-30.34024448 62.6826172 -28.09841089 58.00380111 -25.875 53.3125 C-20.6164656 42.23426379 -15.24952265 31.20982399 -9.875 20.1875 C-9.22721588 18.85871323 -9.22721588 18.85871323 -8.56634521 17.50308228 C-1.31426282 2.62852564 -1.31426282 2.62852564 0 0 Z " fill="#FF7A92" transform="translate(84,143)"/>
<path d="M0 0 C2.4375 2.0625 2.4375 2.0625 5 5 C6.11866805 6.1105813 7.24411687 7.21435959 8.375 8.3125 C11.37100949 11.30850949 14.15968574 14.4331974 16.92578125 17.640625 C19.52629095 20.59864357 22.19731019 23.48692625 24.875 26.375 C29.19082421 31.03189848 33.46791205 35.71901221 37.69921875 40.453125 C39.41651427 42.35410408 41.14651799 44.23703566 42.89453125 46.109375 C43.38945068 46.64167725 43.88437012 47.17397949 44.39428711 47.72241211 C45.35368821 48.75268076 46.3165374 49.77975357 47.28344727 50.80297852 C50.78896887 54.57544081 53.69692926 57.87850483 54.4375 63.0625 C54 66 54 66 52.4375 68.375 C48.91751657 70.72165562 47.16889057 70.7642966 43 70 C36.1482255 65.90077422 31.09743937 58.60299918 26.01953125 52.55859375 C23.36149104 49.40222379 20.61082129 46.34582806 17.8125 43.3125 C14.62263156 39.83863691 11.57951106 36.30089975 8.625 32.625 C4.61961726 27.65230658 0.36253328 22.96988983 -4.01513672 18.32666016 C-8.28812791 13.77753765 -10.49601772 11.1146024 -10.3125 4.875 C-10 3 -10 3 -8.375 1 C-5.24440659 -0.3181446 -3.3696628 -0.55014903 0 0 Z " fill="#FF385C" transform="translate(15,41)"/>
<path d="M0 0 C4.07961035 0.84991882 5.58667322 2.26096874 8 5.625 C7.80360331 10.60941265 6.28867927 12.97060278 2.875 16.5 C2.05773437 17.36367188 1.24046875 18.22734375 0.3984375 19.1171875 C-0.39304687 19.94476563 -1.18453125 20.77234375 -2 21.625 C-3.17549423 22.95055732 -4.34297787 24.2832889 -5.5 25.625 C-10.37143203 31.21479989 -15.3589515 36.70034898 -20.328125 42.203125 C-23.74305638 45.98974959 -27.14986526 49.78083617 -30.5 53.625 C-34.61095277 58.34106965 -38.77280018 63.01276454 -43 67.625 C-43.51175781 68.20636719 -44.02351563 68.78773437 -44.55078125 69.38671875 C-46 70.625 -46 70.625 -49.4375 71.125 C-53 70.625 -53 70.625 -55.5 68.5625 C-57.54481979 64.55806124 -57.37966908 62.90923558 -56 58.625 C-53.96652743 55.67255425 -51.48961906 53.19547848 -49 50.625 C-47.55216622 49.06747397 -46.11346619 47.50179036 -44.67480469 45.93579102 C-43.11429536 44.2383561 -41.54781445 42.54659081 -39.98046875 40.85546875 C-36.71040393 37.31956189 -33.49179494 33.73881099 -30.27734375 30.15234375 C-27.23998332 26.78155096 -24.16984363 23.44119863 -21.09887695 20.10107422 C-18.08343823 16.81777331 -15.09713723 13.51017169 -12.125 10.1875 C-11.39925781 9.38699219 -10.67351562 8.58648437 -9.92578125 7.76171875 C-8.77917898 6.48952516 -7.64605738 5.20463383 -6.54296875 3.89453125 C-4.42870244 1.49836276 -3.16676081 0.65974184 0 0 Z " fill="#FF385B" transform="translate(500,44.375)"/>
<path d="M0 0 C3.625 0.5 3.625 0.5 6.625 2.5 C8.87970579 5.88205869 8.77764452 7.29412744 8.16412354 11.2048645 C7.15204419 15.51344885 5.38358006 19.4819499 3.6171875 23.52734375 C3.01162521 24.94811974 3.01162521 24.94811974 2.39382935 26.39759827 C1.10538696 29.4150735 -0.19683871 32.42635635 -1.5 35.4375 C-2.77455745 38.40847888 -4.04625182 41.38067226 -5.31781006 44.35293579 C-6.14874373 46.29304303 -6.98161113 48.23232328 -7.81646729 50.17074585 C-10.70878968 56.89441793 -13.51961704 63.64754576 -16.21292114 70.45359802 C-17.3499076 73.27633636 -18.19903179 75.32403179 -20.375 77.5 C-23.91122611 77.82742834 -26.48195442 77.89952039 -29.75 76.4375 C-32.21758391 73.49538072 -32.20623826 71.33025944 -32.375 67.5 C-31.51557049 64.07537804 -30.18364343 60.89084539 -28.81640625 57.640625 C-28.43443588 56.69676941 -28.05246552 55.75291382 -27.65892029 54.78045654 C-26.43371542 51.76380788 -25.18598127 48.75707908 -23.9375 45.75 C-23.13198368 43.77534261 -22.32793361 41.80008643 -21.52539062 39.82421875 C-19.55261681 34.97988772 -17.55327865 30.14710106 -15.54327393 25.31811523 C-14.38397193 22.52164213 -13.23928464 19.71954498 -12.09716797 16.91601562 C-11.38671017 15.18867169 -10.67595073 13.46145178 -9.96484375 11.734375 C-9.6453627 10.94299133 -9.32588165 10.15160767 -8.99671936 9.33624268 C-8.69479172 8.60878845 -8.39286407 7.88133423 -8.08178711 7.13183594 C-7.82320419 6.49953064 -7.56462128 5.86722534 -7.29820251 5.21575928 C-5.38335709 1.65704518 -4.04606582 0.59941716 0 0 Z " fill="#FF7A93" transform="translate(382.375,11.5)"/>
<path d="M0 0 C3.39166076 2.26110718 3.84305929 3.3600182 5.38842773 7.02539062 C5.83576767 8.07408325 6.2831076 9.12277588 6.7440033 10.20324707 C7.21906815 11.34273804 7.694133 12.482229 8.18359375 13.65625 C8.68037125 14.82828979 9.17714874 16.00032959 9.6889801 17.20788574 C11.0108351 20.33149917 12.32461294 23.4582687 13.63476562 26.58679199 C14.95581509 29.7353334 16.28817437 32.87907891 17.61914062 36.0234375 C20.42975413 42.67531926 23.23017443 49.33102821 26 56 C26.4023587 56.94875 26.80471741 57.8975 27.2192688 58.875 C27.58656097 59.75736328 27.95385315 60.63972656 28.33227539 61.54882812 C28.65555313 62.31650513 28.97883087 63.08418213 29.31190491 63.87512207 C30.40084578 67.23783523 30.08249619 69.68485541 29 73 C26.62669414 75.82971083 25.11970153 75.98319978 21.4375 76.5 C20.303125 76.335 19.16875 76.17 18 76 C15.16804727 72.1335524 13.43659201 67.64907571 11.55859375 63.26171875 C11.23427368 62.51180161 10.90995361 61.76188446 10.57580566 60.98924255 C9.52549413 58.55711608 8.48083212 56.12262804 7.4375 53.6875 C6.90517258 52.44670685 6.90517258 52.44670685 6.36209106 51.18084717 C4.92382511 47.8277772 3.48626444 44.47441504 2.05271912 41.11932373 C-0.04095287 36.22167715 -2.16389172 31.33863025 -4.3125 26.46484375 C-5.22971188 24.35179908 -6.14642452 22.23853759 -7.0625 20.125 C-7.48539307 19.18358154 -7.90828613 18.24216309 -8.34399414 17.2722168 C-10.60107024 11.99398845 -11.59488723 8.59673729 -10 3 C-7.06306714 -0.37203402 -4.31912218 -0.45948108 0 0 Z " fill="#FF7A93" transform="translate(134,10)"/>
<path d="M0 0 C1.0209375 -0.01160156 1.0209375 -0.01160156 2.0625 -0.0234375 C4.68983023 0.51686025 5.40749668 1.20474275 7 3.375 C7.38095093 6.48693848 7.38095093 6.48693848 7.38818359 10.36914062 C7.39344055 11.07677048 7.39869751 11.78440033 7.40411377 12.51347351 C7.41731947 14.85295677 7.40857415 17.1917598 7.3984375 19.53125 C7.40045808 21.15645478 7.40336939 22.78165868 7.40713501 24.40686035 C7.41155912 27.81315746 7.40512466 31.21921859 7.39111328 34.62548828 C7.37402117 38.99384596 7.38386191 43.36165071 7.40183067 47.7299881 C7.41266627 51.0860003 7.40922324 54.4418812 7.4014473 57.79789734 C7.39944466 59.40866664 7.4019068 61.01944782 7.40888596 62.63020325 C7.41649698 64.88074361 7.40490228 67.13038598 7.38818359 69.38085938 C7.38579681 70.66198608 7.38341003 71.94311279 7.38095093 73.26306152 C7 76.375 7 76.375 5.59683228 78.28723145 C3.60618221 79.64327026 2.39622565 79.77722984 0 79.75 C-1.0209375 79.76160156 -1.0209375 79.76160156 -2.0625 79.7734375 C-4.68983023 79.23313975 -5.40749668 78.54525725 -7 76.375 C-7.38095093 73.26306152 -7.38095093 73.26306152 -7.38818359 69.38085938 C-7.39344055 68.67322952 -7.39869751 67.96559967 -7.40411377 67.23652649 C-7.41731947 64.89704323 -7.40857415 62.5582402 -7.3984375 60.21875 C-7.40045808 58.59354522 -7.40336939 56.96834132 -7.40713501 55.34313965 C-7.41155912 51.93684254 -7.40512466 48.53078141 -7.39111328 45.12451172 C-7.37402117 40.75615404 -7.38386191 36.38834929 -7.40183067 32.0200119 C-7.41266627 28.6639997 -7.40922324 25.3081188 -7.4014473 21.95210266 C-7.39944466 20.34133336 -7.4019068 18.73055218 -7.40888596 17.11979675 C-7.41649698 14.86925639 -7.40490228 12.61961402 -7.38818359 10.36914062 C-7.38579681 9.08801392 -7.38341003 7.80688721 -7.38095093 6.48693848 C-7 3.375 -7 3.375 -5.59683228 1.46276855 C-3.60618221 0.10672974 -2.39622565 -0.02722984 0 0 Z " fill="#FF5270" transform="translate(257,-0.375)"/>
</svg>
