
<svg version="1.1" xmlns="http://www.w3.org/2000/svg" width="512" height="512">
<path d="M0 0 C5.28 0.66 10.56 1.32 16 2 C16 26.61231605 1.53176824 51.50984017 -15.25 68.8125 C-21.73715411 75.24440717 -31.46626774 84.4011068 -41 85 C-42.71474833 83.997034 -44.42811002 82.99093189 -46.1171875 81.9453125 C-49.40869851 80.29272814 -52.49214535 80.25308038 -56 81 C-60.01466578 82.49650624 -62.99746236 84.33648328 -65.23828125 88.0546875 C-67.04456605 92.65395012 -67.39511564 96.49326349 -65.86328125 101.2109375 C-64.02809345 105.01417737 -61.28365021 107.21554709 -57.75 109.375 C-52.31617473 110.60996029 -45.85457742 109.79505973 -41 107 C-39.52421591 104.71253467 -38.86532451 102.59597353 -38 100 C-35.2265625 98.45703125 -35.2265625 98.45703125 -31.625 96.8125 C-21.47691475 91.97650527 -13.23381702 85.53116915 -5.19140625 77.6875 C-3 76 -3 76 1 76 C3.55078125 78.125 3.55078125 78.125 6.3125 81 C7.21613281 81.928125 8.11976563 82.85625 9.05078125 83.8125 C11.18602407 86.082958 13.23043949 88.41762252 15.26171875 90.78125 C19.44160307 95.59025976 23.96098527 100.03269166 28.5 104.5 C33.67894884 109.5971329 38.75370573 114.70108503 43.46704102 120.23608398 C45.06485059 122.07462104 46.74020615 123.81595035 48.4375 125.5625 C63.97285118 143.4771392 64.59387645 164.28469885 64.51757812 186.77246094 C64.52300576 189.46616992 64.52998884 192.159835 64.53881836 194.85353088 C64.55650289 201.37843062 64.55280961 207.90314519 64.5411678 214.42805186 C64.53209686 219.73367882 64.53092519 225.03925427 64.53526306 230.34488678 C64.53587599 231.10290282 64.53648893 231.86091886 64.53712043 232.64190508 C64.53839945 234.18223404 64.53969631 235.72256299 64.5410108 237.26289192 C64.55238627 251.66788435 64.53934909 266.07277455 64.51780933 280.47775021 C64.49992657 292.81903948 64.50305801 305.16017826 64.52148438 317.50146484 C64.54291984 331.86467469 64.55130313 346.22779531 64.53903532 360.59101892 C64.53776123 362.12413802 64.53650375 363.65725715 64.53526306 365.19037628 C64.53433741 366.32161279 64.53433741 366.32161279 64.53339306 367.47570257 C64.52994925 372.77268015 64.53574719 378.06960077 64.54518127 383.36656952 C64.55643183 389.82474361 64.55329675 396.28272339 64.5320583 402.74087539 C64.52159085 406.0315021 64.51952793 409.32174096 64.53065491 412.61237526 C64.54162867 416.18792784 64.52782325 419.76257821 64.50793457 423.33807373 C64.51685746 424.36581146 64.52578034 425.39354919 64.53497362 426.45243049 C64.41426762 437.683907 60.76993019 446.8608058 53 455 C42.20076554 465.30928809 30.58977144 466.59655671 16.3203125 466.51757812 C14.66167591 466.52300841 13.00304414 466.53013612 11.34442139 466.53881836 C6.8691484 466.55694704 2.39424711 466.55002774 -2.0810318 466.53730202 C-6.78173263 466.52711982 -11.48240328 466.53658211 -16.18310547 466.54284668 C-24.07460192 466.55010796 -31.96594825 466.54057538 -39.85742188 466.52148438 C-48.95921549 466.49971856 -58.0606506 466.50677101 -67.16243553 466.52879 C-75.00058735 466.54698742 -82.83863173 466.54948115 -90.67679787 466.53903532 C-95.34788508 466.5328242 -100.0188042 466.53189879 -104.68988037 466.54518127 C-109.08302197 466.5568026 -113.47570485 466.54860035 -117.8687973 466.52560425 C-119.47351065 466.52035051 -121.07826314 466.52177323 -122.68296051 466.53065491 C-136.14129493 466.59823205 -146.9360728 464.60734071 -157 455 C-165.75948313 445.8242246 -168.61623328 435.81191429 -168.50793457 423.33807373 C-168.51417453 422.21628165 -168.5204145 421.09448956 -168.52684355 419.93870378 C-168.54270449 416.20728974 -168.53019558 412.47653522 -168.51757812 408.74511719 C-168.52300243 406.05848812 -168.52998308 403.37190335 -168.53881836 400.68528748 C-168.55654882 394.16117108 -168.55278749 387.63723939 -168.5411678 381.11311594 C-168.53210899 375.80552072 -168.53092003 370.49797702 -168.53526306 365.19037628 C-168.53587599 364.43297317 -168.53648893 363.67557007 -168.53712043 362.89521535 C-168.53839944 361.35618318 -168.53969629 359.81715102 -168.5410108 358.27811888 C-168.55240137 343.86539273 -168.53932847 329.45276854 -168.51780933 315.04005912 C-168.49995422 302.6999948 -168.50303229 290.36008111 -168.52148438 278.02001953 C-168.54294313 263.66265997 -168.55128767 249.30538977 -168.53903532 234.94801641 C-168.53776124 233.41363988 -168.53650376 231.87926334 -168.53526306 230.34488678 C-168.53464596 229.590112 -168.53402886 228.83533723 -168.53339306 228.05769049 C-168.52995404 222.76464225 -168.53573737 217.47165114 -168.54518127 212.17861176 C-168.55645909 205.71606348 -168.55324147 199.25370926 -168.5320583 192.79118291 C-168.52162256 189.50008921 -168.51948859 186.20938052 -168.53065491 182.91827965 C-168.6126141 156.29568864 -163.94094796 137.24159793 -145 118 C-143.57482148 116.40339068 -142.15780461 114.79944954 -140.75 113.1875 C-136.19660121 108.09985767 -131.3649424 103.30643005 -126.49121094 98.52807617 C-123.38014092 95.46028415 -120.39128668 92.35022813 -117.5390625 89.0390625 C-113.27333784 84.09331213 -108.6206432 79.57043931 -103.9609375 75 C-100.02061695 71.10532023 -96.28860779 67.11013992 -92.67041016 62.91503906 C-83.5480957 52.45677618 -73.50192489 41.44012901 -58.94628906 39.76342773 C-44.81749806 38.87756476 -34.76988133 42.07796449 -23 50 C-13.57596197 36.80255439 -6.91063111 23.72374241 -2.82421875 7.98828125 C-2 5 -2 5 0 0 Z M-56 223 C-56 229.27 -56 235.54 -56 242 C-58.908125 242.309375 -58.908125 242.309375 -61.875 242.625 C-71.59105989 244.14577459 -78.42021063 248.36794793 -84.59765625 255.984375 C-89.19631028 262.59413957 -90.7521398 270.01896102 -90 278 C-88.12354315 288.00246913 -83.31249994 294.96467396 -74.99609375 300.75 C-68.38804281 304.88811409 -64.17304018 305.18269598 -56 306 C-56 316.56 -56 327.12 -56 338 C-67.98453608 335.60309278 -67.98453608 335.60309278 -72 331 C-73.31732506 328.01473105 -74.14832799 325.1701125 -75 322 C-79.95 322 -84.9 322 -90 322 C-89.5388651 331.5301212 -86.79117462 338.74004699 -79.75 345.375 C-72.27104034 351.49414881 -65.56238248 353.46127423 -56 354 C-56 360.27 -56 366.54 -56 373 C-50.72 373 -45.44 373 -40 373 C-40 366.73 -40 360.46 -40 354 C-38.06125 353.79375 -36.1225 353.5875 -34.125 353.375 C-24.40894011 351.85422541 -17.57978937 347.63205207 -11.40234375 340.015625 C-6.80368972 333.40586043 -5.2478602 325.98103898 -6 318 C-7.85660208 308.10336687 -12.76300708 300.81434795 -21 295 C-27.64112732 291.21238211 -31.8585411 290.81414589 -40 290 C-40 279.44 -40 268.88 -40 258 C-28.01546392 260.39690722 -28.01546392 260.39690722 -24 265 C-22.68267494 267.98526895 -21.85167201 270.8298875 -21 274 C-16.05 274 -11.1 274 -6 274 C-6.46856002 264.31642618 -9.6707661 256.19214412 -16.92578125 249.53515625 C-24.03932311 244.27033148 -31.27974291 242.37914161 -40 242 C-40 235.73 -40 229.46 -40 223 C-45.28 223 -50.56 223 -56 223 Z " fill="#000000" transform="translate(408,22)"/>
<path d="M0 0 C-0.64066406 0.6290625 -1.28132812 1.258125 -1.94140625 1.90625 C-3.23884766 3.19015625 -3.23884766 3.19015625 -4.5625 4.5 C-5.40941406 5.3353125 -6.25632812 6.170625 -7.12890625 7.03125 C-9.21706553 9.14194076 -11.16289822 11.33541893 -13.08984375 13.59375 C-18.57477615 19.92200103 -24.64671417 25.70242349 -30.60253906 31.58203125 C-36.10830725 37.02366112 -41.58218278 42.43924399 -46.56713867 48.37280273 C-48.05524392 50.06273654 -49.64079972 51.55587721 -51.3125 53.0625 C-70.47270133 72.09324051 -75.00438836 98.20776958 -75.13371277 124.11192322 C-75.14656142 128.59798608 -75.14634664 133.08399044 -75.14526367 137.57006836 C-75.14825958 140.05170237 -75.1516631 142.53333593 -75.15544128 145.01496887 C-75.16332807 151.0304137 -75.1664939 157.04584307 -75.16705366 163.06129163 C-75.16753091 167.95502735 -75.16959598 172.84875987 -75.17275429 177.74249458 C-75.18154615 191.65050321 -75.18617572 205.55850417 -75.18542381 219.46651559 C-75.18538386 220.2141841 -75.1853439 220.96185261 -75.18530273 221.73217773 C-75.18524141 222.85506616 -75.18524141 222.85506616 -75.18517885 224.00063921 C-75.18477233 236.13450484 -75.19434734 248.26833944 -75.2084411 260.4021961 C-75.2228348 272.89383454 -75.22970971 285.38545788 -75.22884732 297.87710482 C-75.22851649 304.87720431 -75.2312138 311.87727123 -75.24202538 318.8773632 C-75.25212971 325.46103846 -75.25176461 332.04465694 -75.24450874 338.62833977 C-75.24346684 341.03646953 -75.24580225 343.44460364 -75.2518692 345.85272598 C-75.27994819 357.77528126 -75.15133644 369.24377854 -73 381 C-72.65908539 383.33223772 -72.32395398 385.66534598 -72 388 C-75.78518732 386.5839494 -79.19749321 384.84578935 -82.69921875 382.83203125 C-84.36936035 381.87466064 -84.36936035 381.87466064 -86.07324219 380.89794922 C-87.27804914 380.20289367 -88.48280029 379.5077414 -89.6875 378.8125 C-90.94288672 378.09105251 -92.19842292 377.36986506 -93.45410156 376.64892578 C-96.68120292 374.7949706 -99.90596414 372.93698535 -103.13006592 371.07781982 C-104.90920925 370.05233129 -106.68904049 369.02805128 -108.46923828 368.00439453 C-120.98742639 360.80611378 -133.47956203 353.56443528 -145.9465332 346.27783203 C-152.3096125 342.56136179 -158.68531671 338.86754095 -165.07080078 335.18969727 C-168.36814847 333.28995634 -171.66263211 331.38531685 -174.95703125 329.48046875 C-178.67106763 327.33490524 -182.39525238 325.21060195 -186.13671875 323.11328125 C-198.66205521 316.04103571 -207.91736427 308.81608994 -212.8125 294.6484375 C-216.30692697 280.91339816 -212.52729144 268.80084587 -205.6875 256.8125 C-205.16260986 255.87180664 -204.63771973 254.93111328 -204.09692383 253.96191406 C-199.05536456 244.97507692 -193.8528345 236.07931993 -188.6328125 227.1953125 C-184.90974274 220.85744496 -181.23175166 214.4941409 -177.5625 208.125 C-176.94084961 207.04653809 -176.31919922 205.96807617 -175.67871094 204.85693359 C-173.78529329 201.57158489 -171.89253632 198.28585647 -170 195 C-162.12337411 181.32445686 -154.22879908 167.66039042 -146.26708984 154.03417969 C-140.10080946 143.47379718 -133.9950405 132.87873234 -127.89111328 122.28222656 C-124.76319852 116.85340058 -121.63141552 111.42680719 -118.5 106 C-117.24998121 103.83334417 -115.99998122 101.6666775 -114.75 99.5 C-111 93 -111 93 -107.25 86.5 C-106.6307666 85.42637207 -106.0115332 84.35274414 -105.37353516 83.24658203 C-104.12943326 81.09072237 -102.88432386 78.93544379 -101.63818359 76.78076172 C-98.75150526 71.78670994 -95.87400128 66.78827996 -93.03460693 61.76715088 C-92.04322392 60.01516662 -91.04847824 58.26513388 -90.05273438 56.515625 C-88.81561782 54.33970368 -87.5845991 52.16029762 -86.36132812 49.9765625 C-73.54366803 27.49858683 -57.75653783 14.08789432 -33 7 C-31.86788086 6.6690332 -30.73576172 6.33806641 -29.56933594 5.99707031 C-26.31714083 5.05020769 -23.06251107 4.11404272 -19.80374146 3.19018555 C-18.48148617 2.8148822 -17.1599224 2.43713354 -15.83908081 2.05688477 C-13.96463488 1.51986905 -12.08588452 0.99794894 -10.20703125 0.4765625 C-9.1085083 0.16799316 -8.00998535 -0.14057617 -6.87817383 -0.45849609 C-4.09534124 -0.98206236 -2.62114642 -0.96303214 0 0 Z " fill="#000000" transform="translate(300,81)"/>
<path d="M0 0 C0.33 0.66 0.66 1.32 1 2 C-0.01293945 4.25219727 -0.01293945 4.25219727 -1.61328125 7.06640625 C-2.19650146 8.10015381 -2.77972168 9.13390137 -3.38061523 10.19897461 C-4.01813721 11.30893799 -4.65565918 12.41890137 -5.3125 13.5625 C-6.28328491 15.27288452 -6.28328491 15.27288452 -7.27368164 17.01782227 C-11.55479482 24.53990218 -15.90853201 32.01727533 -20.32421875 39.4609375 C-23.68145465 45.13328613 -26.96160625 50.85006883 -30.25 56.5625 C-35.14145287 65.05656235 -40.05378484 73.53770762 -45 82 C-49.86107581 90.3174901 -54.69148209 98.65201634 -59.5 107 C-64.30851844 115.34798459 -69.13905683 123.68243184 -74 132 C-80.74713114 143.54722486 -87.4333937 155.12902119 -94.10888672 166.71777344 C-97.86028024 173.22871257 -101.61690994 179.73663194 -105.37255859 186.24511719 C-108.51182246 191.68585336 -111.64981497 197.12731477 -114.78515625 202.5703125 C-116.0442026 204.75524766 -117.30331691 206.94014365 -118.5625 209.125 C-119.17875244 210.19468018 -119.79500488 211.26436035 -120.42993164 212.36645508 C-124.13577607 218.79170314 -127.87023833 225.19931838 -131.62524414 231.59594727 C-143.84713317 251.88668299 -143.84713317 251.88668299 -152 274 C-158.81485122 268.27452118 -165.19336394 262.16824816 -171.53369141 255.92626953 C-172.83742435 254.64908392 -174.14826023 253.37910611 -175.46630859 252.11669922 C-185.94586711 242.0723688 -195.9230884 231.25159422 -196.29272461 215.89428711 C-196.42004369 200.47924712 -191.99000785 191.1452181 -181.286273 180.03738403 C-179.93733254 178.67890215 -178.58306138 177.32569858 -177.22428894 175.97705078 C-176.47242902 175.22277644 -175.72056909 174.4685021 -174.94592553 173.69137096 C-172.44807524 171.18792539 -169.94319754 168.69163733 -167.43823242 166.1953125 C-165.6370902 164.39309642 -163.83638125 162.59044724 -162.03607178 160.78739929 C-157.6679605 156.41495622 -153.29525693 152.04715308 -148.92034151 147.68151933 C-143.82456882 142.59616731 -138.73406439 137.50555509 -133.6437426 132.41474783 C-124.56518886 123.33569453 -115.48182671 114.26146732 -106.39575195 105.18994141 C-97.57765895 96.38596082 -88.76310137 87.57846036 -79.95239258 78.76708984 C-79.1369171 77.95155443 -79.1369171 77.95155443 -78.30496737 77.11954355 C-77.76225623 76.57679206 -77.2195451 76.03404058 -76.66038817 75.47484207 C-66.62321991 65.43698466 -56.58276945 55.40241604 -46.54077741 45.36938453 C-42.98921667 41.82084232 -39.43863518 38.27132208 -35.88835716 34.72149658 C-31.11792791 29.95181924 -26.34471982 25.1849394 -21.56962585 20.41993141 C-19.81351559 18.666752 -18.05826064 16.91271539 -16.30390358 15.1577816 C-13.91850315 12.77189358 -11.53007134 10.38908356 -9.14079285 8.00708008 C-8.43934983 7.30408846 -7.73790681 6.60109684 -7.01520795 5.87680244 C-6.37808135 5.2429003 -5.74095476 4.60899815 -5.08452129 3.95588684 C-4.53316468 3.40523465 -3.98180807 2.85458246 -3.41374367 2.28724384 C-2 1 -2 1 0 0 Z " fill="#000000" transform="translate(223,84)"/>
<path d="M0 0 C9.24324324 0 9.24324324 0 14 4 C18.08142118 8.5226559 19.32364536 11.79146353 19.2109375 17.9453125 C18.72144252 22.71335617 16.46819043 25.79112677 12.9375 28.8125 C7.63896473 32.75821775 7.95974823 32 0 32 C0 21.44 0 10.88 0 0 Z " fill="#000000" transform="translate(368,328)"/>
<path d="M0 0 C0 10.56 0 21.12 0 32 C-9.24324324 32 -9.24324324 32 -14 28 C-18.08142118 23.4773441 -19.32364536 20.20853647 -19.2109375 14.0546875 C-18.72144252 9.28664383 -16.46819043 6.20887323 -12.9375 3.1875 C-7.63896473 -0.75821775 -7.95974823 0 0 0 Z " fill="#000000" transform="translate(352,280)"/>
</svg>
