
<svg version="1.1" xmlns="http://www.w3.org/2000/svg" width="512" height="512">
<path d="M0 0 C1.62161673 1.49484539 3.26302644 2.96845661 4.921875 4.421875 C47.65068661 41.89175595 71.7918537 99.29590453 76.2043457 155.12255859 C77.23364767 171.50075968 76.55494084 187.95396404 74.3984375 204.2109375 C74.29660156 204.9838916 74.19476563 205.7568457 74.08984375 206.55322266 C71.99087598 221.61849902 71.99087598 221.61849902 66.3984375 227.2109375 C62.11696328 230.2975817 58.09204981 230.79617049 52.93359375 230.625 C47.46233411 229.73138903 43.75535392 226.94948667 40.3984375 222.6484375 C37.84124409 213.85808514 39.63645681 204.24537857 40.8984375 195.3359375 C47.16898158 146.45336852 34.73679004 95.06819778 4.94140625 55.45703125 C0.62272677 49.87500713 -3.96761559 44.53139506 -8.6015625 39.2109375 C-9.25125 38.4375 -9.9009375 37.6640625 -10.5703125 36.8671875 C-14.55448657 32.15861814 -18.87645525 28.16476436 -23.6015625 24.2109375 C-24.47554688 23.44910156 -25.34953125 22.68726562 -26.25 21.90234375 C-33.93610249 15.29806534 -42.00163598 9.56659338 -50.6015625 4.2109375 C-51.20919434 3.8308252 -51.81682617 3.45071289 -52.44287109 3.05908203 C-76.57342679 -11.80884924 -103.61300557 -20.2428092 -131.6015625 -23.7890625 C-132.54257812 -23.92054687 -133.48359375 -24.05203125 -134.453125 -24.1875 C-184.70892749 -30.09056251 -236.11870759 -13.34716482 -275.55078125 17.51953125 C-284.59035309 24.7940542 -293.17433922 32.27926601 -300.6015625 41.2109375 C-301.36082031 42.08234375 -302.12007813 42.95375 -302.90234375 43.8515625 C-309.51048568 51.53879448 -315.2707627 59.5900347 -320.6015625 68.2109375 C-321.0140625 68.87802734 -321.4265625 69.54511719 -321.8515625 70.23242188 C-348.94452237 114.80880741 -356.16798443 168.71451023 -344.0390625 219.2109375 C-335.82103178 251.19476667 -320.06008414 278.48772794 -298.6015625 303.2109375 C-297.53858217 304.50220891 -296.47598102 305.79379274 -295.4140625 307.0859375 C-292.1514984 310.86461343 -288.40958586 313.99791779 -284.6015625 317.2109375 C-283.6528125 318.04753906 -282.7040625 318.88414062 -281.7265625 319.74609375 C-273.81960743 326.67735481 -265.5557301 332.70151906 -256.6015625 338.2109375 C-255.93592285 338.6219873 -255.2702832 339.03303711 -254.58447266 339.45654297 C-216.16502226 362.8109727 -170.78711373 371.56238402 -126.42578125 365.27880859 C-107.78143568 362.68350091 -107.78143568 362.68350091 -101.6015625 365.7734375 C-97.35259308 369.22572515 -95.11051991 372.26762718 -94.1875 377.60546875 C-93.86235804 383.17566398 -94.97034892 386.88283813 -98.01953125 391.51953125 C-101.37262039 395.1044389 -105.11746518 396.57036599 -109.8828125 397.34375 C-110.88248047 397.5097168 -111.88214844 397.67568359 -112.91210938 397.84667969 C-113.96462891 398.00813477 -115.01714844 398.16958984 -116.1015625 398.3359375 C-117.19017578 398.50770508 -118.27878906 398.67947266 -119.40039062 398.85644531 C-177.26557286 407.7734318 -238.01062437 393.61074785 -285.921875 359.90625 C-300.7644245 349.01654658 -315.99427103 336.54935638 -327.6015625 322.2109375 C-328.51300535 321.11196632 -329.42446531 320.01300934 -330.3359375 318.9140625 C-368.92316509 271.96481719 -388.22152366 212.32303982 -383.10546875 151.55078125 C-378.17705012 101.78043313 -358.88423866 54.5503127 -324.8125 17.609375 C-323.31765461 15.98775827 -321.84404339 14.34634856 -320.390625 12.6875 C-283.51240093 -29.36661517 -227.2844137 -53.18523405 -172.4140625 -58.4765625 C-109.38067466 -62.32103851 -46.80260679 -43.16745286 0 0 Z " fill="#000000" transform="translate(409.6015625,84.7890625)"/>
<path d="M0 0 C15.1714048 12.52009134 25.37281523 31.78784264 27.76171875 51.28515625 C28.80710038 70.08955574 26.17054879 85.52060922 17.67553711 102.46728516 C17.31672958 103.1834903 16.95792206 103.89969543 16.58824158 104.63760376 C16.31548904 105.18129608 16.04273651 105.7249884 15.76171875 106.28515625 C16.40651688 106.92107193 17.051315 107.55698761 17.71565247 108.21217346 C23.80255425 114.21879177 29.87968662 120.23508945 35.9461565 126.26234531 C39.06503117 129.36038165 42.18750094 132.45460192 45.31860352 135.5402832 C48.34245784 138.52054657 51.35631896 141.51059113 54.36362267 144.50755119 C55.5103275 145.64688848 56.66053652 146.78271052 57.81434059 147.91485786 C59.43499559 149.50630341 61.04252217 151.11001107 62.64770508 152.71704102 C63.56481766 153.62527115 64.48193024 154.53350128 65.42683411 155.46925354 C68.82026288 159.5617749 70.51993488 163.38542584 71.19921875 168.72265625 C70.45418248 174.78938019 68.50773405 178.8954706 63.69921875 182.72265625 C59.14783941 185.14360271 55.90078845 185.70639147 50.76171875 185.28515625 C42.41451275 182.18296476 36.92364129 175.95732857 30.82421875 169.73828125 C29.69310002 168.59969072 28.56108638 167.4619886 27.42822266 166.32513428 C24.46675763 163.34848694 21.51750971 160.36002154 18.57073975 157.36883545 C15.55451957 154.31150211 12.52676822 151.2656347 9.5 148.21875 C3.57596654 142.25197651 -2.33519525 136.27265409 -8.23828125 130.28515625 C-9.93549316 131.10790039 -9.93549316 131.10790039 -11.66699219 131.94726562 C-13.18539947 132.67478689 -14.70396254 133.40198308 -16.22265625 134.12890625 C-16.96435059 134.48952148 -17.70604492 134.85013672 -18.47021484 135.22167969 C-36.90494365 144.00776371 -58.71479309 145.31106174 -78.18994141 139.02587891 C-88.20345547 135.40478216 -97.19766697 130.26642394 -105.23828125 123.28515625 C-106.75421875 122.14046875 -106.75421875 122.14046875 -108.30078125 120.97265625 C-123.88736421 106.71259099 -132.16027493 86.6102578 -133.45703125 65.76953125 C-134.05379557 41.99841903 -125.82893491 21.38072982 -109.55078125 4.03515625 C-78.5572022 -25.4734136 -33.13851839 -25.38884743 0 0 Z M-89.23828125 31.28515625 C-97.49461282 42.05563391 -101.27139399 53.72076866 -100.23828125 67.28515625 C-98.07491123 81.0170558 -91.87736318 91.3843812 -81.23828125 100.28515625 C-70.29292117 107.82931353 -58.37166037 110.44751712 -45.23828125 109.28515625 C-32.1647251 106.85490953 -20.94860772 100.18421731 -13.23828125 89.28515625 C-6.04970728 77.14943449 -3.17040337 65.53018559 -5.7734375 51.375 C-6.46375843 48.93435713 -7.27651923 46.63101926 -8.23828125 44.28515625 C-8.62113281 43.27775391 -8.62113281 43.27775391 -9.01171875 42.25 C-13.95126547 30.85278898 -24.62141615 21.74976757 -35.9609375 17.09765625 C-55.51050746 10.12285256 -75.34103022 16.22202845 -89.23828125 31.28515625 Z " fill="#000000" transform="translate(415.23828125,300.71484375)"/>
<path d="M0 0 C4.52966583 2.47551505 7.16586374 5.37259122 8.8125 10.3125 C8.90800569 11.88503062 8.94739505 13.461279 8.95294189 15.03669739 C8.95865204 16.00819229 8.96436218 16.97968719 8.97024536 17.98062134 C8.97192215 19.5773317 8.97192215 19.5773317 8.97363281 21.20629883 C8.98108017 22.88962059 8.98108017 22.88962059 8.98867798 24.60694885 C9.00331007 28.32781584 9.01010335 32.04864019 9.015625 35.76953125 C9.02137555 38.35161846 9.02713329 40.93370566 9.03289795 43.51579285 C9.04206663 48.24100526 9.04836575 52.9662006 9.0513947 57.69142038 C9.05587366 64.64002821 9.07341514 71.58843915 9.1023953 78.53698713 C9.12664223 84.56031765 9.13434027 90.58355524 9.13607025 96.60693932 C9.13909886 99.16699991 9.14713436 101.72705963 9.16025543 104.28708839 C9.17730063 107.86838336 9.17543909 111.44919856 9.16894531 115.03051758 C9.1781601 116.08891846 9.18737488 117.14731934 9.1968689 118.23779297 C9.13561272 129.01649769 4.80217087 133.76640331 -2.61865234 141.13183594 C-3.47912674 141.99756729 -4.33960114 142.86329865 -5.22615051 143.75526428 C-7.57809487 146.11812242 -9.93655714 148.47406583 -12.29871321 150.82668972 C-14.77392903 153.29428714 -17.24179081 155.76922216 -19.71084595 158.24298096 C-23.85653816 162.39412335 -28.00849832 166.53891755 -32.1640625 170.68017578 C-36.96453345 175.46431088 -41.75408699 180.25917203 -46.53813398 185.05972648 C-50.65161196 189.18682749 -54.77091878 193.30804213 -58.89513552 197.42441201 C-61.35591265 199.88051851 -63.81463315 202.33859173 -66.26810837 204.80199432 C-69.00269994 207.54687757 -71.749467 210.27937161 -74.49755859 213.01074219 C-75.71184792 214.23414055 -75.71184792 214.23414055 -76.95066833 215.48225403 C-77.70206589 216.22519211 -78.45346344 216.96813019 -79.22763062 217.73358154 C-79.8754418 218.38026165 -80.52325298 219.02694176 -81.19069481 219.69321823 C-85.67071249 223.3262271 -90.17574587 223.75323375 -95.75390625 223.62890625 C-100.65892449 222.99117515 -103.34702482 220.2665529 -106.5 216.6875 C-108.84789396 213.38305664 -109.36450545 211.57720014 -109.4375 207.5625 C-109.46328125 206.72203125 -109.4890625 205.8815625 -109.515625 205.015625 C-108.75008931 198.7090691 -105.44582334 195.3337084 -100.6849165 191.58161068 C-99.93988526 191.00892232 -99.19485403 190.43623396 -98.42724609 189.84619141 C-96.79047412 188.54700468 -95.15637895 187.24444045 -93.52458191 185.93901062 C-92.22600282 184.90148934 -92.22600282 184.90148934 -90.9011898 183.84300804 C-43.68749118 146.90587293 -43.68749118 146.90587293 -20.31848145 94.27630615 C-18.22810061 71.65900718 -19.71556352 48.4890652 -22.72541809 26.00605774 C-22.84593851 25.070165 -22.96645893 24.13427227 -23.09063148 23.17001915 C-23.31986063 21.44593061 -23.5705463 19.72448072 -23.84824181 18.00753212 C-24.62957164 12.19506951 -23.64777803 8.11527346 -20.1875 3.3125 C-13.86626389 -1.71868793 -7.56870114 -3.50193635 0 0 Z " fill="#000000" transform="translate(274.1875,123.6875)"/>
</svg>
