
<svg version="1.1" xmlns="http://www.w3.org/2000/svg" width="512" height="512">
<path d="M0 0 C1.14913879 -0.0049649 2.29827759 -0.00992981 3.48223877 -0.01504517 C7.25826631 -0.02957144 11.03425192 -0.03645078 14.81030273 -0.04199219 C17.44628398 -0.04774895 20.08226522 -0.05350661 22.71824646 -0.05926514 C27.53022806 -0.06880817 32.34220071 -0.0747232 37.1541906 -0.07776189 C44.21647758 -0.08224799 51.27857155 -0.09983767 58.34079987 -0.12876248 C64.4816 -0.15303276 70.6223207 -0.16070828 76.76316643 -0.16243744 C79.3662312 -0.16546036 81.96929523 -0.17347666 84.57232857 -0.18662262 C88.21243041 -0.20370285 91.8520617 -0.20179835 95.4921875 -0.1953125 C96.56202377 -0.20452728 97.63186005 -0.21374207 98.7341156 -0.22323608 C107.00252163 -0.17715467 114.08427072 1.06400705 120.18139648 7.16113281 C124.42174489 13.2924474 125.92339321 18.72767473 125.18139648 26.16113281 C123.51559552 33.28341569 119.98959689 37.09796517 114.11889648 41.41113281 C110.04588735 43.83760634 106.92285086 44.28529333 102.22546387 44.29916382 C101.22760864 44.30461716 100.22975342 44.3100705 99.20166016 44.31568909 C97.56837769 44.31725258 97.56837769 44.31725258 95.90209961 44.31884766 C94.17449402 44.32646873 94.17449402 44.32646873 92.4119873 44.33424377 C89.90858217 44.34494858 87.40516746 44.35356832 84.90174866 44.36036301 C80.93270749 44.37215929 76.96374414 44.39133733 72.99475098 44.41348267 C61.70869845 44.47527368 50.4226501 44.52928633 39.13647461 44.5625 C32.90147895 44.5809289 26.66662385 44.60997154 20.4317317 44.65050471 C17.13824256 44.67144555 13.84496601 44.68531914 10.55140686 44.68931198 C6.8660142 44.69425091 3.18113662 44.71748813 -0.50415039 44.74462891 C-1.57681152 44.74162277 -2.64947266 44.73861664 -3.75463867 44.73551941 C-21.11734455 44.92427055 -36.02598714 51.28358968 -48.26391602 63.47363281 C-64.16837772 80.20493197 -66.27347375 98.5404469 -66.20678711 120.62988281 C-66.21085739 122.8978704 -66.21620183 125.16585601 -66.22271729 127.43383789 C-66.23634228 133.56601872 -66.23111211 139.69804737 -66.22158003 145.83023071 C-66.21395845 152.26280106 -66.22103597 158.6953588 -66.22573853 165.12792969 C-66.23153741 176.61888661 -66.22224349 188.10976608 -66.20696051 199.60071087 C-66.19355909 209.99848979 -66.19588774 220.3961682 -66.2097168 230.79394531 C-66.2258072 242.89747534 -66.23172835 255.00092657 -66.22288001 267.1044693 C-66.2182149 273.50090445 -66.21754664 279.89727052 -66.22748947 286.29370117 C-66.236187 292.30861262 -66.23008628 298.32333517 -66.2128067 304.33822632 C-66.20885674 306.53917122 -66.2099502 308.74013214 -66.2165947 310.94107056 C-66.27268752 331.41691856 -63.60728098 348.84300517 -48.93554688 364.17138672 C-35.0745906 378.08679253 -19.10479391 383.42677041 0.24640274 383.56237054 C3.38106448 383.56792568 6.51549677 383.55877972 9.65014648 383.54931641 C11.91813407 383.55338669 14.18611968 383.55873112 16.45410156 383.56524658 C22.58628239 383.57887157 28.71831105 383.57364141 34.85049438 383.56410933 C41.28306473 383.55648775 47.71562248 383.56356526 54.14819336 383.56826782 C65.63915028 383.57406671 77.13002975 383.56477279 88.62097454 383.54948981 C99.01875346 383.53608839 109.41643187 383.53841703 119.81420898 383.55224609 C131.91773901 383.5683365 144.02119024 383.57425765 156.12473297 383.5654093 C162.52116812 383.5607442 168.91753419 383.56007593 175.31396484 383.57001877 C181.32887629 383.5787163 187.34359884 383.57261558 193.35848999 383.555336 C195.55943489 383.55138604 197.76039582 383.5524795 199.96133423 383.55912399 C220.43718223 383.61521682 237.86326884 380.94981027 253.19165039 366.27807617 C266.46997015 353.05171309 272.42113437 337.27018015 272.56781578 318.64208794 C272.57006664 317.10052703 272.56786581 315.55895406 272.56152153 314.01740456 C272.55225622 311.5559974 272.56280475 309.09532725 272.57814026 306.63395691 C272.61783431 299.64668618 272.61944175 292.65948411 272.6171875 285.67211914 C272.61713614 281.37108624 272.63641706 277.07045851 272.66652107 272.76953697 C272.677239 270.36209616 272.66528729 267.95546343 272.6526947 265.54804993 C272.6724139 256.84075558 272.74884424 248.03753161 278.93138123 241.23591614 C284.75761883 235.79889163 290.34532861 234.69476047 298.17358398 234.84863281 C304.14892375 235.46944733 307.75733549 237.76871762 311.99389648 241.91113281 C318.0456132 250.90225479 317.60935815 259.66210027 317.54467773 270.07519531 C317.54415799 271.73416137 317.54468011 273.39312805 317.54618835 275.05209351 C317.5460989 278.52359254 317.53573165 281.99485807 317.51757812 285.46630859 C317.49499883 289.87706713 317.49433062 294.28748194 317.50109577 298.69828224 C317.50446861 302.12506059 317.49774225 305.5517632 317.48796654 308.97852707 C317.48416302 310.60252865 317.48294577 312.22653874 317.48455238 313.85054398 C317.48666642 326.6389889 316.78979553 339.2026948 313.05639648 351.53613281 C312.84466797 352.23963867 312.63293945 352.94314453 312.41479492 353.66796875 C303.74786726 380.98524707 284.53949244 402.92277999 259.42504883 416.38745117 C253.31312087 419.5257458 247.13657137 422.05575036 240.55639648 424.03613281 C239.92507813 424.22723633 239.29375977 424.41833984 238.64331055 424.61523438 C224.49775928 428.54178286 210.24631611 428.44960772 195.70092773 428.41992188 C193.45559577 428.42263653 191.21026471 428.42620012 188.9649353 428.43054199 C182.90301173 428.43961179 176.8411567 428.43614415 170.77923203 428.42978382 C164.414343 428.42469571 158.04945958 428.42942306 151.68457031 428.43255615 C140.31584537 428.43641977 128.947155 428.43023159 117.57843697 428.42003748 C107.29731179 428.41110357 97.01623179 428.41265611 86.73510742 428.421875 C74.75900812 428.43260891 62.78293619 428.43654567 50.80683041 428.43065047 C44.48079787 428.4275436 38.15479637 428.42708601 31.82876587 428.43372345 C25.8795222 428.43953032 19.93036328 428.43543919 13.98112869 428.42393494 C11.80682134 428.42130615 9.63250677 428.4220227 7.45820236 428.42646027 C-6.7050587 428.45268584 -20.5123904 428.17751075 -34.19360352 424.03613281 C-34.89710937 423.8244043 -35.60061523 423.61267578 -36.32543945 423.39453125 C-63.64271777 414.72760359 -85.5802507 395.51922877 -99.04492188 370.40478516 C-102.1832165 364.2928572 -104.71322106 358.1163077 -106.69360352 351.53613281 C-106.88470703 350.90481445 -107.07581055 350.27349609 -107.27270508 349.62304688 C-111.1911615 335.5066476 -111.11203438 321.27605191 -111.09326172 306.76000977 C-111.09761643 304.52278983 -111.1028021 302.28557138 -111.10874939 300.0483551 C-111.12207058 294.00676179 -111.12272563 287.96523131 -111.12018609 281.92362618 C-111.11911145 276.86209593 -111.12401244 271.80057813 -111.12879151 266.73905057 C-111.140495 254.1049561 -111.13967532 241.47089978 -111.1332347 228.8368059 C-111.1280713 217.90913328 -111.13931134 206.98154995 -111.15833292 196.05389497 C-111.17778987 184.78825969 -111.18566328 173.5226653 -111.18220967 162.25700921 C-111.18040573 155.95035855 -111.18294335 149.64378964 -111.19692421 143.33715248 C-111.20959448 137.40017624 -111.20747228 131.46337727 -111.19451332 125.52640343 C-111.19216769 123.362257 -111.19480882 121.19809774 -111.20313644 119.03396606 C-111.26159102 102.64614587 -110.8232052 85.77233404 -104.63110352 70.34863281 C-104.33067139 69.57076416 -104.03023926 68.79289551 -103.72070312 67.99145508 C-99.13624966 56.50732249 -92.87431674 46.55663834 -84.81860352 37.16113281 C-84.34036133 36.55011719 -83.86211914 35.93910156 -83.36938477 35.30957031 C-67.73356128 15.68638783 -41.30189579 3.87683012 -16.89828491 0.64137268 C-11.26450949 0.03177207 -5.66187312 0.00592724 0 0 Z " fill="#000000" transform="translate(152.818603515625,41.8388671875)"/>
<path d="M0 0 C5.80910904 2.57349777 10.52264461 7.36762693 15.2734375 11.50390625 C18.6197074 14.40525836 22.06854558 17.15175609 25.56640625 19.8671875 C30.68079733 23.84719433 35.73428425 27.89328175 40.75390625 31.9921875 C45.71615075 36.04210174 50.70544857 40.05024109 55.75390625 43.9921875 C61.49401293 48.4741886 67.15083871 53.05175307 72.79296875 57.65625 C77.07842677 61.14749186 81.39733912 64.59019457 85.75390625 67.9921875 C90.94131988 72.04576471 96.08034952 76.15521049 101.19140625 80.3046875 C101.84173828 80.83191406 102.49207031 81.35914063 103.16210938 81.90234375 C104.41520878 82.92233833 105.66505304 83.94634689 106.91137695 84.97460938 C108.16466506 86.00686576 109.42662112 87.02866809 110.69604492 88.04101562 C116.37173135 92.67422903 118.82533945 97.33241939 120.1328125 104.59765625 C120.54828807 111.31227754 117.79228419 117.01566458 113.61757469 122.08771896 C110.8483616 125.04048196 108.00870588 127.90276533 105.12963867 130.74755859 C104.0359283 131.84641493 102.94329021 132.94633939 101.85163879 134.04724121 C98.90017602 137.01713628 95.9333217 139.97118651 92.96279311 142.92199659 C89.84859219 146.01974839 86.74707144 149.13015307 83.64363098 152.23867798 C78.43289155 157.45393035 73.21207816 162.65892888 67.98510742 167.85791016 C61.94920992 173.86173434 55.92953585 179.88145807 49.91828269 185.90994966 C44.12365724 191.72045641 38.31777104 197.51958408 32.50667763 203.31361771 C30.03864897 205.77478867 27.57459998 208.2398441 25.11369896 210.70814133 C22.2146917 213.61482825 19.30592914 216.51139257 16.38944817 219.40054321 C15.32302118 220.46010395 14.25994284 221.52304776 13.20055771 222.5896492 C0.98746297 234.87630214 0.98746297 234.87630214 -8.55859375 234.9921875 C-15.27722616 234.77963104 -21.24426226 232.64583575 -25.9453125 227.70703125 C-29.19620132 223.31972857 -30.37284948 219.82825985 -30.35961914 214.4699707 C-30.35954361 213.44913895 -30.35946808 212.42830719 -30.35939026 211.37654114 C-30.35422897 210.27646225 -30.34906769 209.17638336 -30.34375 208.04296875 C-30.34162758 206.35133858 -30.34162758 206.35133858 -30.33946228 204.62553406 C-30.33385845 201.01855838 -30.32130528 197.41164446 -30.30859375 193.8046875 C-30.30357924 191.36132902 -30.29901625 188.91796957 -30.29492188 186.47460938 C-30.28388778 180.48044763 -30.2671459 174.48632198 -30.24609375 168.4921875 C-71.37584361 169.19436489 -113.40704079 172.42721075 -144.9765625 202.0546875 C-150.32232917 207.62423045 -154.39529312 213.55517133 -158.11621094 220.27807617 C-161.94922978 227.13019113 -166.70230305 232.10118943 -174.24609375 234.4921875 C-180.46112559 235.389109 -185.97206445 235.00648681 -191.4609375 231.828125 C-197.3671515 227.40815741 -200.68317293 222.25333255 -201.7734375 214.96875 C-205.93492552 180.01779403 -196.42621755 142.67507028 -175.24609375 114.4921875 C-174.60027344 113.6259375 -173.95445312 112.7596875 -173.2890625 111.8671875 C-149.88404962 81.58377833 -114.16193024 67.33074266 -77.11987305 62.38305664 C-61.68442733 60.56497498 -45.69366918 59.5475236 -30.24609375 61.4921875 C-30.2549762 60.92113281 -30.26385864 60.35007813 -30.27301025 59.76171875 C-30.36184415 53.79160624 -30.42197681 47.821683 -30.46582031 41.85107422 C-30.48587421 39.62606168 -30.5131244 37.40110143 -30.54785156 35.17626953 C-30.59664309 31.96894385 -30.61912537 28.76231799 -30.63671875 25.5546875 C-30.65736389 24.56791016 -30.67800903 23.58113281 -30.69927979 22.56445312 C-30.70128156 16.33386863 -29.79033222 11.69839483 -26.24609375 6.4921875 C-24.17578125 4.43359375 -24.17578125 4.43359375 -22.12109375 3.0546875 C-21.09628906 2.34505859 -21.09628906 2.34505859 -20.05078125 1.62109375 C-14.33204008 -1.95621404 -6.44897592 -1.45802934 0 0 Z " fill="#000000" transform="translate(350.24609375,64.5078125)"/>
</svg>
