
<svg version="1.1" xmlns="http://www.w3.org/2000/svg" width="512" height="512">
<path d="M0 0 C3.89297679 2.94738157 7.44094156 6.19630916 10.99609375 9.5390625 C13.68891313 12.02562338 16.45919222 14.34503005 19.3125 16.64453125 C22.88828469 19.53051918 26.35401318 22.48647929 29.75 25.58203125 C34.03836449 29.49041407 38.48389673 33.1550801 42.99609375 36.80078125 C46.69082791 39.86138373 50.22649944 43.08117314 53.75390625 46.33203125 C55.63450675 48.12985104 55.63450675 48.12985104 57.75 49.08203125 C57.76401855 47.75026855 57.76401855 47.75026855 57.77832031 46.39160156 C57.82240681 43.08857206 57.88404746 39.78683118 57.95751953 36.484375 C57.98569611 35.05676188 58.00692727 33.62899372 58.02099609 32.20117188 C58.04247392 30.14502793 58.08913974 28.09074123 58.140625 26.03515625 C58.1720459 24.18132324 58.1720459 24.18132324 58.20410156 22.29003906 C58.84715563 18.51108986 59.69336561 17.33166018 62.75 15.08203125 C66.03827257 13.98442128 69.15107594 13.9436371 72.60083008 13.92089844 C74.36835381 13.90648712 74.36835381 13.90648712 76.17158508 13.89178467 C78.07631844 13.88540985 78.07631844 13.88540985 80.01953125 13.87890625 C81.98378304 13.87035614 81.98378304 13.87035614 83.98771667 13.8616333 C86.75914903 13.85114279 89.53055255 13.84528754 92.30200195 13.84179688 C95.83925146 13.83631922 99.37611469 13.81229905 102.91324329 13.78382492 C106.30283139 13.76062895 109.69236795 13.75874437 113.08203125 13.75390625 C114.34578079 13.74155945 115.60953033 13.72921265 116.91157532 13.7164917 C123.24601507 13.73249624 128.2293902 13.81136979 133.75 17.08203125 C135.44499317 20.47201758 134.82933565 24.32875473 134.78076172 28.0546875 C134.76465274 29.98355796 134.74895579 31.91243189 134.73361206 33.84130859 C134.72407375 34.86778503 134.71453545 35.89426147 134.7047081 36.95184326 C134.6532002 43.52437436 134.65892456 50.09716021 134.65334892 56.66986084 C134.64514262 62.44536364 134.61746572 68.21951642 134.54785156 73.99462891 C134.48163987 79.58019189 134.46940895 85.16360338 134.49310684 90.7494812 C134.492498 92.87370286 134.47250187 94.99801467 134.43233871 97.12185669 C133.73226772 108.96905929 133.73226772 108.96905929 138.08770752 119.51245117 C140.85229176 122.06107323 143.58656 124.06192763 146.75 126.08203125 C148.61937855 127.58412708 150.47567761 129.10279471 152.3125 130.64453125 C153.22128906 131.37800781 154.13007813 132.11148438 155.06640625 132.8671875 C157.69708557 135.03835952 160.22942424 137.28444482 162.75 139.58203125 C166.16739372 142.69661793 169.6552235 145.67389745 173.25 148.58203125 C177.76242328 152.2352484 182.10476791 156.0292191 186.38671875 159.94921875 C188.62848417 161.97236572 190.92954657 163.90041056 193.25 165.83203125 C196.9785525 169.1321009 198.4594155 171.34022591 198.9921875 176.3671875 C199.3081363 182.5281891 198.49414403 186.15552595 194.75 191.08203125 C190.07946512 194.70407871 186.58845994 196.21002745 180.7277832 196.19555664 C179.70695145 196.19548111 178.68611969 196.19540558 177.63435364 196.19532776 C176.53427475 196.19016647 175.43419586 196.18500519 174.30078125 196.1796875 C173.1730278 196.17827255 172.04527435 196.1768576 170.88334656 196.17539978 C167.27637088 196.16979595 163.66945696 196.15724278 160.0625 196.14453125 C157.61914152 196.13951674 155.17578207 196.13495375 152.73242188 196.13085938 C146.73823824 196.12067558 140.74418836 196.10110078 134.75 196.08203125 C134.75 207.63203125 134.75 219.18203125 134.75 231.08203125 C131.924375 229.70015625 129.09875 228.31828125 126.1875 226.89453125 C97.21129212 213.03558802 66.02753776 208.62147738 35.0625 218.26953125 C16.88444655 224.81206342 1.61679235 234.72955645 -12.25 248.08203125 C-12.95769531 248.71496094 -13.66539062 249.34789062 -14.39453125 250 C-35.63488975 269.59650184 -46.87630939 300.90985788 -48.53125 329.16796875 C-49.27050345 360.03180034 -37.82575151 388.13786051 -17.6875 411.20703125 C-15.25 414.08203125 -15.25 414.08203125 -15.25 416.08203125 C-29.22000721 416.15241887 -43.18998652 416.20496397 -57.16013527 416.23746777 C-63.64816088 416.25307381 -70.13606673 416.27421919 -76.62402344 416.30834961 C-82.89398743 416.34112405 -89.16383676 416.35892227 -95.43387985 416.36666298 C-97.81707945 416.37217415 -100.2002733 416.38293547 -102.58342361 416.39922142 C-128.15770323 416.56692166 -147.64012903 413.03170378 -166.9375 394.95703125 C-178.18681114 383.33809988 -185.3828633 367.60855712 -185.37025452 351.33061218 C-185.37110894 350.66480458 -185.37196337 349.99899697 -185.37284368 349.31301337 C-185.37448625 347.08975143 -185.36899721 344.86656551 -185.36352539 342.64331055 C-185.36324323 341.04653424 -185.36340182 339.4497578 -185.3639679 337.85298157 C-185.36425474 333.52282586 -185.35837623 329.19269786 -185.35139394 324.86254859 C-185.34514162 320.33551661 -185.34455511 315.80848399 -185.34336853 311.28144836 C-185.34026076 302.71094467 -185.33205483 294.14045373 -185.32201904 285.56995565 C-185.31084071 275.81186507 -185.30534311 266.05377388 -185.30032361 256.2956785 C-185.28987176 236.22445563 -185.27228303 216.15324424 -185.25 196.08203125 C-185.87116699 196.0909137 -186.49233398 196.09979614 -187.13232422 196.10894775 C-193.62148804 196.19772468 -200.11047816 196.25789125 -206.60009766 196.30175781 C-209.0191143 196.3218219 -211.43808276 196.34907968 -213.85693359 196.38378906 C-217.34224368 196.43253466 -220.82691016 196.45505289 -224.3125 196.47265625 C-225.38677246 196.49330139 -226.46104492 196.51394653 -227.56787109 196.53521729 C-233.98456495 196.53711706 -238.92810931 195.85370588 -244.25 192.08203125 C-248.11238177 188.02157862 -249.39776476 184.81579318 -249.5 179.26953125 C-249.52578125 178.43808594 -249.5515625 177.60664063 -249.578125 176.75 C-248.80523604 170.46567665 -245.332954 166.83991802 -240.75 162.76953125 C-239.95650146 162.06014404 -239.95650146 162.06014404 -239.14697266 161.33642578 C-234.83722737 157.51452774 -230.38477339 153.87392616 -225.8984375 150.26171875 C-223.27724881 148.10445726 -220.75845719 145.86892125 -218.25 143.58203125 C-213.95008209 139.66311873 -209.49080453 135.99032256 -204.96875 132.33203125 C-202.32852271 130.14701556 -199.7827028 127.89031734 -197.25 125.58203125 C-192.95008209 121.66311873 -188.49080453 117.99032256 -183.96875 114.33203125 C-181.32852271 112.14701556 -178.7827028 109.89031734 -176.25 107.58203125 C-171.95008209 103.66311873 -167.49080453 99.99032256 -162.96875 96.33203125 C-160.32852271 94.14701556 -157.7827028 91.89031734 -155.25 89.58203125 C-150.95008209 85.66311873 -146.49080453 81.99032256 -141.96875 78.33203125 C-139.32852271 76.14701556 -136.7827028 73.89031734 -134.25 71.58203125 C-129.95008209 67.66311873 -125.49080453 63.99032256 -120.96875 60.33203125 C-118.32852271 58.14701556 -115.7827028 55.89031734 -113.25 53.58203125 C-108.95008209 49.66311873 -104.49080453 45.99032256 -99.96875 42.33203125 C-97.32852271 40.14701556 -94.7827028 37.89031734 -92.25 35.58203125 C-87.95008209 31.66311873 -83.49080453 27.99032256 -78.96875 24.33203125 C-76.32852271 22.14701556 -73.7827028 19.89031734 -71.25 17.58203125 C-66.07225712 12.87871031 -60.72962711 8.42873968 -55.25 4.08203125 C-54.36441406 3.355 -53.47882813 2.62796875 -52.56640625 1.87890625 C-36.49770824 -10.71484836 -16.86881967 -11.381661 0 0 Z " fill="#000000" transform="translate(281.25,51.91796875)"/>
<path d="M0 0 C21.63882687 17.80263698 35.06189532 40.85735975 39.17578125 68.6640625 C40.1057607 84.2466699 40.03144308 99.72871646 35.17578125 114.6640625 C34.86229736 115.63424316 34.86229736 115.63424316 34.54248047 116.62402344 C29.27221995 132.29663337 20.71134237 144.99014382 9.17578125 156.6640625 C8.53253906 157.37949219 7.88929688 158.09492188 7.2265625 158.83203125 C-7.59550903 174.94018274 -32.06795528 185.54467733 -53.79003906 186.84106445 C-68.57754232 187.13222097 -82.65436893 187.27085224 -96.82421875 182.6640625 C-97.79439941 182.35057861 -97.79439941 182.35057861 -98.78417969 182.03076172 C-114.4502406 176.76270345 -127.15978248 168.20459732 -138.82421875 156.6640625 C-139.47777344 156.07109375 -140.13132812 155.478125 -140.8046875 154.8671875 C-153.77126433 142.87978008 -162.71481846 124.63059639 -166.82421875 107.6640625 C-166.99937012 106.9728833 -167.17452148 106.2817041 -167.35498047 105.56958008 C-169.07434003 98.09933856 -169.20980021 90.74378492 -169.19921875 83.1015625 C-169.19867493 82.43865204 -169.1981311 81.77574158 -169.1975708 81.09274292 C-169.15738305 70.42803967 -168.27932645 60.7710598 -164.82421875 50.6640625 C-164.61522949 50.03580566 -164.40624023 49.40754883 -164.19091797 48.76025391 C-159.26652261 34.2526532 -151.61921556 21.54405929 -140.82421875 10.6640625 C-139.99921875 9.7978125 -139.17421875 8.9315625 -138.32421875 8.0390625 C-137.49921875 7.2553125 -136.67421875 6.4715625 -135.82421875 5.6640625 C-135.23898437 5.08398438 -134.65375 4.50390625 -134.05078125 3.90625 C-123.54562086 -6.05217342 -110.53693866 -12.90509602 -96.82421875 -17.3359375 C-95.85403809 -17.65135498 -95.85403809 -17.65135498 -94.86425781 -17.97314453 C-62.63503472 -27.90616278 -26.40130546 -20.47727712 0 0 Z M-70.13671875 37.4765625 C-73.18544578 41.42861606 -72.95779706 45.19313491 -72.921875 49.95703125 C-72.91975258 51.01607414 -72.91975258 51.01607414 -72.91758728 52.09651184 C-72.91199639 54.34823876 -72.89944563 56.59986571 -72.88671875 58.8515625 C-72.88170257 60.37955585 -72.87713987 61.90755077 -72.87304688 63.43554688 C-72.86202995 67.17842385 -72.84477162 70.92122623 -72.82421875 74.6640625 C-73.76217285 74.64835205 -74.70012695 74.6326416 -75.66650391 74.61645508 C-79.1665608 74.56514285 -82.66621445 74.52762378 -86.16650391 74.49926758 C-87.67763602 74.48423707 -89.18872493 74.46380686 -90.69970703 74.43774414 C-92.87934062 74.40110561 -95.0583945 74.38427912 -97.23828125 74.37109375 C-98.54748535 74.3553833 -99.85668945 74.33967285 -101.20556641 74.32348633 C-105.1073889 74.69071358 -107.51063606 75.6072159 -110.82421875 77.6640625 C-112.24463696 80.50489891 -112.13874147 82.51883528 -111.82421875 85.6640625 C-109.59215444 88.51186869 -108.27428876 89.51403916 -104.82421875 90.6640625 C-102.38314115 90.7486012 -99.97162662 90.78012036 -97.53125 90.76171875 C-96.82522141 90.7603038 -96.11919281 90.75888885 -95.39176941 90.75743103 C-93.14004249 90.75184014 -90.88841554 90.73928938 -88.63671875 90.7265625 C-87.1087254 90.72154632 -85.58073048 90.71698362 -84.05273438 90.71289062 C-80.3098574 90.7018737 -76.56705502 90.68461537 -72.82421875 90.6640625 C-72.84778442 92.07099365 -72.84778442 92.07099365 -72.87182617 93.50634766 C-72.9231384 97.00640455 -72.96065747 100.5060582 -72.98901367 104.00634766 C-73.00404418 105.51747977 -73.02447439 107.02856868 -73.05053711 108.53955078 C-73.08717564 110.71918437 -73.10400213 112.89823825 -73.1171875 115.078125 C-73.14075317 117.04193115 -73.14075317 117.04193115 -73.16479492 119.04541016 C-72.79756767 122.94723265 -71.88106535 125.35047981 -69.82421875 128.6640625 C-66.98338234 130.08448071 -64.96944597 129.97858522 -61.82421875 129.6640625 C-58.97641256 127.43199819 -57.97424209 126.11413251 -56.82421875 122.6640625 C-56.73968005 120.2229849 -56.70816089 117.81147037 -56.7265625 115.37109375 C-56.72868492 114.31205086 -56.72868492 114.31205086 -56.73085022 113.23161316 C-56.73644111 110.97988624 -56.74899187 108.72825929 -56.76171875 106.4765625 C-56.76673493 104.94856915 -56.77129763 103.42057423 -56.77539062 101.89257812 C-56.78640755 98.14970115 -56.80366588 94.40689877 -56.82421875 90.6640625 C-55.88626465 90.67977295 -54.94831055 90.6954834 -53.98193359 90.71166992 C-50.4818767 90.76298215 -46.98222305 90.80050122 -43.48193359 90.82885742 C-41.97080148 90.84388793 -40.45971257 90.86431814 -38.94873047 90.89038086 C-36.76909688 90.92701939 -34.590043 90.94384588 -32.41015625 90.95703125 C-31.10095215 90.9727417 -29.79174805 90.98845215 -28.44287109 91.00463867 C-24.5410486 90.63741142 -22.13780144 89.7209091 -18.82421875 87.6640625 C-17.40380054 84.82322609 -17.50969603 82.80928972 -17.82421875 79.6640625 C-20.05628306 76.81625631 -21.37414874 75.81408584 -24.82421875 74.6640625 C-27.26529635 74.5795238 -29.67681088 74.54800464 -32.1171875 74.56640625 C-32.82321609 74.5678212 -33.52924469 74.56923615 -34.25666809 74.57069397 C-36.50839501 74.57628486 -38.76002196 74.58883562 -41.01171875 74.6015625 C-42.5397121 74.60657868 -44.06770702 74.61114138 -45.59570312 74.61523438 C-49.3385801 74.6262513 -53.08138248 74.64350963 -56.82421875 74.6640625 C-56.8085083 73.7261084 -56.79279785 72.7881543 -56.77661133 71.82177734 C-56.7252991 68.32172045 -56.68778003 64.8220668 -56.65942383 61.32177734 C-56.64439332 59.81064523 -56.62396311 58.29955632 -56.59790039 56.78857422 C-56.56126186 54.60894063 -56.54443537 52.42988675 -56.53125 50.25 C-56.50768433 48.28619385 -56.50768433 48.28619385 -56.48364258 46.28271484 C-56.85086983 42.38089235 -57.76737215 39.97764519 -59.82421875 36.6640625 C-63.61953354 34.76640511 -66.7974384 34.85928871 -70.13671875 37.4765625 Z " fill="#000000" transform="translate(416.82421875,301.3359375)"/>
</svg>
